<?xml version="1.0" encoding="UTF-8"?>
<svg id="Layer_2" data-name="Layer 2" xmlns="http://www.w3.org/2000/svg" viewBox="0 0 1014.18 422.42">
  <defs>
    <style>
      .cls-1 {
        fill: #005a9f;
      }

      .cls-2 {
        fill: #801719;
      }

      .cls-3 {
        fill: #00599e;
      }
    </style>
  </defs>
  <g id="Layer_1-2" data-name="Layer 1">
    <g>
      <rect class="cls-1" x="310.77" y=".28" width="111.76" height="46.65"/>
      <rect class="cls-1" x="454.11" y="123.04" width="94.35" height="46.65"/>
      <g>
        <path class="cls-1" d="M376.53,292.68l-19.9-59.87h-110.88l-20.52,59.87h-56.69L269.47.28h66.41l103.04,292.4h-62.39ZM312.42,101.19c-5.11-15.37-8.96-28.84-11.66-40.4h-.43c-4.64,17.34-8.47,30.82-11.4,40.4l-29.84,86.96h83.14l-29.81-86.96Z"/>
        <path class="cls-2" d="M369.77,160.1h365.21v132.57h-365.21c-.79,0-1.43-.64-1.43-1.43v-129.72c0-.79.64-1.43,1.43-1.43Z"/>
        <path class="cls-1" d="M533.26,48.31v74.89h94.57v46.35h-94.57v123.13h-56.3V.28h156.37v48.03h-100.08Z"/>
        <path class="cls-3" d="M686.13,293.25V0h159.56v47.32h-103.12v72.15h97.82v46.04h-97.82v79.15h103.12v48.59h-159.56Z"/>
      </g>
      <g>
        <path class="cls-3" d="M0,402.28l15.39-69.49h25.2l15.32,69.49h-18.87l-1.89-10.49h-14.39l-1.93,10.49H0ZM23.46,377.01h8.87l-1.62-8.95c-.39-2.01-.77-4.48-1.04-7.49-.31-2.97-.54-5.48-.66-7.49l-.23-2.89h-1.7c-.54,7.37-1.2,13.35-2.01,17.86l-1.62,8.95Z"/>
        <path class="cls-3" d="M76.82,403.55c-5.71,0-9.8-1.43-12.27-4.28-2.51-2.86-3.74-7.29-3.74-13.31v-57.37h18.56v55.41c0,3.2,1.43,4.78,4.32,4.78l3.13-.31,1.81,1.66v11.19c-3.51,1.47-7.45,2.24-11.81,2.24Z"/>
        <path class="cls-3" d="M97.89,402.28v-40.05h-6.52v-14.66h6.52v-3.2c0-7.33,1.89-12.5,5.59-15.47,3.74-2.97,9.14-4.48,16.28-4.48,1.35,0,2.78.08,4.32.23,1.54.19,2.74.31,3.55.46l1.31.19-1.43,13.5-1.31.58c-1.47-.19-2.82-.27-4.01-.27-1.97,0-3.4.35-4.36,1.04-.93.73-1.39,1.97-1.39,3.7v3.7h12.5v14.66h-12.5v40.05h-18.56Z"/>
        <path class="cls-3" d="M147.08,403.55c-4.51,0-8.1-1.47-10.84-4.4-2.7-2.89-4.09-6.56-4.09-10.96v-2.74c0-9.45,4.71-14.74,14.12-15.82l13.08-1.58v-.46c0-2.35-.77-4.01-2.32-5.05-1.54-1.04-4.48-1.58-8.84-1.58-1.5,0-3.13.08-4.9.27-1.77.15-3.2.31-4.28.42l-1.5.19-1.74-1.08c0-.62.35-2.74,1.04-6.29.66-3.59,1.2-6.02,1.58-7.29l1.62-.19c1.16-.15,2.78-.31,4.94-.46,2.16-.15,4.24-.23,6.25-.23,9.61,0,16.48,1.7,20.6,5.05,4.13,3.36,6.17,8.68,6.17,15.94v17.4c0,1.16.23,2.04.66,2.62.46.58,1.23.96,2.39,1.16l2.32.31.69,1.74-2.12,9.34c-.27.27-.62.62-1.12,1-.46.42-1.54,1-3.2,1.66-1.7.69-3.51,1.04-5.44,1.04-5.25,0-8.95-2.08-11.19-6.21h-.69c-3.51,4.13-7.91,6.21-13.2,6.21ZM155.03,389.85c1.7,0,3.13-.62,4.32-1.77v-11.38l-4.44,1.66c-2.82,1.04-4.21,2.78-4.21,5.17v1.93c0,1.31.39,2.35,1.16,3.16.77.81,1.81,1.23,3.16,1.23Z"/>
        <path class="cls-3" d="M205.69,402.28v-69.49h36.08v14.78h-17.56v13.7h14.2v13.62h-14.2v27.39h-18.52Z"/>
        <path class="cls-3" d="M260.09,403.55c-5.05,0-9.03-1.54-12-4.63-2.97-3.09-4.44-7.72-4.44-13.93v-37.43h18.56v36.15c0,3.36,1.81,5.05,5.44,5.05,1.93,0,3.74-.54,5.44-1.54v-39.66h18.52v37.12c0,2.2,1.04,3.47,3.13,3.78l2.2.31.81,1.74-2.2,9.34c-.19.27-.54.62-1,1-.5.42-1.54,1-3.24,1.66-1.66.69-3.47,1.04-5.44,1.04-5.17,0-8.91-2.08-11.27-6.21h-.62c-3.74,4.13-8.41,6.21-13.89,6.21Z"/>
        <path class="cls-3" d="M326.88,403.55c-7.79,0-13.08-1.7-15.86-5.05-2.82-3.4-4.21-8.72-4.21-16.05v-20.22h-6.33v-14.66h6.33l5.44-12.66h13.12v12.66h12.08v14.66h-12.08v20.03c0,2.35.35,4.01,1.08,5.02.73,1,2.12,1.5,4.13,1.5l5.56-.5,1.31.58v12.85c-2.7,1.23-6.21,1.85-10.57,1.85Z"/>
        <path class="cls-3" d="M360.03,403.55c-5.05,0-9.03-1.54-12-4.63-2.97-3.09-4.44-7.72-4.44-13.93v-37.43h18.56v36.15c0,3.36,1.81,5.05,5.44,5.05,1.93,0,3.74-.54,5.44-1.54v-39.66h18.52v37.12c0,2.2,1.04,3.47,3.13,3.78l2.2.31.81,1.74-2.2,9.34c-.19.27-.54.62-1,1-.5.42-1.54,1-3.24,1.66-1.66.69-3.47,1.04-5.44,1.04-5.17,0-8.91-2.08-11.27-6.21h-.62c-3.74,4.13-8.41,6.21-13.89,6.21Z"/>
        <path class="cls-3" d="M402.62,402.28v-54.71h10.88l5.05,6.02c3.28-4.86,7.76-7.29,13.39-7.29l2.7.19-1.31,16.05-2.08.96c-1.27-.27-2.62-.39-4.05-.39-2.2,0-4.21.54-6.02,1.66v37.5h-18.56Z"/>
        <path class="cls-3" d="M462.78,403.55c-8.14,0-14.2-2.2-18.17-6.64-4.01-4.4-6.02-11.19-6.02-20.41v-3.78c0-8.3,2.08-14.78,6.21-19.45,4.13-4.67,9.61-6.98,16.48-6.98h1.81c6.56,0,11.58,1.89,15.05,5.63,3.47,3.74,5.21,9.26,5.21,16.51v1.85c0,1.12-.12,2.43-.27,3.97-.15,1.58-.35,2.86-.54,3.9l-.19,1.47h-25.2v2.62c0,2.35.66,4.01,2.01,5.02,1.35,1,3.97,1.5,7.87,1.5,1.31,0,2.97-.15,4.94-.5,1.93-.31,3.51-.66,4.71-.96l1.93-.5,1.5.69c.66,4.4,1.16,8.49,1.43,12.27,0,.12-.77.46-2.28,1-1.5.54-3.82,1.16-6.91,1.81-3.09.62-6.29.96-9.57.96ZM457.14,370.21h8.64v-7.68c0-3.13-1.2-4.67-3.63-4.67-1.27,0-2.43.5-3.47,1.54-1.04,1.04-1.54,2.74-1.54,5.17v5.63Z"/>
        <path class="cls-3" d="M542.18,415.78c-9.45,0-16.59-2.86-21.34-8.57-3.01-3.63-4.78-8.18-5.4-13.62-.62-5.44-.31-11.38,1-17.86l14.82-5.17c-1.2,6.17-1.85,11.27-2.04,15.2-.19,3.97.23,7.14,1.2,9.45.96,2.32,2.39,3.94,4.24,4.86,1.85.89,4.36,1.35,7.52,1.35,7.68,0,11.54-3.16,11.54-9.53v-49.85l14.82-5.09v51.05h9.07v14.28h-11.19c-3.86,9.03-11.96,13.5-24.23,13.5Z"/>
        <path class="cls-3" d="M576.29,402.28v-14.28h3.59c4.01,0,6.02-1.74,6.02-5.21v-19.64l14.78-5.09v28.55c0,.66,0,1.08-.08,1.39h9.88v14.28h-12.62v-5.44c-2.97,3.63-8.99,5.44-17.98,5.44h-3.59ZM593.03,422.42l-9.38-8.14,9.38-8.26,9.49,8.26-9.49,8.14Z"/>
        <path class="cls-3" d="M609.2,402.28v-14.28h7.14c-.62-1.66-.89-3.51-.89-5.63,0-3.74.77-7.33,2.32-10.76,1.58-3.43,3.9-6.25,7.02-8.53,5.05-3.74,12.08-5.63,21.07-5.63,3.24,0,7.29.35,12.23,1.04v29.52h8.22v14.28h-57.1ZM634.13,353.62l-9.53-8.14,9.53-8.33,6.1,5.32,6.17-5.32,9.41,8.33-9.41,8.14-6.17-5.36-6.1,5.36ZM638.37,388h4.94v-16.09c-3.78-.12-6.79.69-9.11,2.39-2.28,1.7-3.43,4.01-3.43,6.98,0,2.47.66,4.21,2.01,5.21,1.31,1,3.16,1.5,5.59,1.5Z"/>
        <path class="cls-3" d="M664.99,402.28v-14.28h3.59c4.01,0,6.02-1.74,6.02-5.21v-19.64l14.78-5.09v28.55c0,.66,0,1.08-.08,1.39h9.88v14.28h-12.62v-5.44c-2.97,3.63-8.99,5.44-17.98,5.44h-3.59ZM675.99,355.32l-9.53-8.14,9.53-8.33,6.1,5.44,6.17-5.44,9.41,8.33-9.41,8.14-6.17-5.25-6.1,5.25Z"/>
        <path class="cls-3" d="M697.87,402.28v-14.28h8.26c1.12,0,1.85-.15,2.2-.42.39-.31.54-.93.54-1.89v-19.29l14.82-5.21v25.54c0,.54-.04.96-.08,1.27h2.97c1.12,0,1.85-.15,2.2-.42.39-.31.54-.93.54-1.89v-19.29l14.82-5.21v26.82h2.89c1.08,0,1.77-.15,2.12-.42.35-.31.54-.93.54-1.89v-22.46l14.89-5.17v28.67c0,.15-.04.39-.04.66-.04.31-.04.5-.04.62h9.76v14.28h-12.62v-5.44c-2.74,3.63-7.37,5.44-13.89,5.44h-6.44v-5.44c-2.78,3.63-7.41,5.44-13.93,5.44h-6.52v-5.44c-2.78,3.63-7.41,5.44-13.93,5.44h-9.07Z"/>
        <path class="cls-3" d="M772.95,402.28v-14.28h7.02c-.58-1.66-.89-3.51-.89-5.63,0-3.74.81-7.33,2.35-10.76,1.54-3.43,3.9-6.25,7.02-8.53,5.05-3.74,12.08-5.63,21.07-5.63,3.2,0,7.29.35,12.23,1.04v29.52h8.22v14.28h-57.03ZM802,388h4.94v-16.09c-3.7-.12-6.71.69-9.03,2.39-2.32,1.7-3.47,4.01-3.47,6.98,0,2.47.66,4.21,1.97,5.21,1.35,1,3.2,1.5,5.59,1.5Z"/>
        <path class="cls-3" d="M828.67,402.28v-14.28h5.44c1.08,0,1.81-.15,2.2-.46.42-.31.62-1,.62-2.01v-43.48l14.82-5.09v49.77c0,10.38-5.63,15.55-16.94,15.55h-6.13Z"/>
        <path class="cls-3" d="M857.03,403.98v-61.93l14.89-5.09v61.85l-14.89,5.17Z"/>
        <path class="cls-3" d="M907.26,402.28c-11.23,0-16.82-5.17-16.82-15.55v-44.68l14.78-5.09v48.58c0,1,.23,1.7.62,2.01.42.31,1.16.46,2.2.46h5.48v14.28h-6.25Z"/>
        <path class="cls-3" d="M912.2,402.28v-14.28h7.14c-.62-1.66-.89-3.51-.89-5.63,0-3.74.77-7.33,2.32-10.76,1.58-3.43,3.9-6.25,7.02-8.53,5.05-3.74,12.08-5.63,21.07-5.63,3.24,0,7.29.35,12.23,1.04v29.52h8.14v14.28h-57.03ZM942.26,353.62l-9.45-8.14,9.45-8.33,9.34,8.33-9.34,8.14ZM941.37,388h4.94v-16.09c-3.78-.12-6.79.69-9.11,2.39-2.28,1.7-3.43,4.01-3.43,6.98,0,2.47.66,4.21,1.97,5.21,1.27,1,3.16,1.5,5.63,1.5Z"/>
        <path class="cls-3" d="M967.92,402.28v-14.28h5.44c1.08,0,1.81-.15,2.2-.46.42-.31.62-1,.62-2.01v-43.48l14.82-5.09v49.77c0,10.38-5.63,15.55-16.94,15.55h-6.13Z"/>
        <path class="cls-3" d="M993.03,341.82v-7.33h3.63c-.19-.54-.27-1.35-.27-2.39,0-2.55.89-4.78,2.62-6.71,1.77-1.93,4.21-2.89,7.33-2.89h7.83v7.33h-6.33c-2.35,0-3.55.77-3.55,2.28,0,1.62,1.2,2.39,3.55,2.39h6.33v7.33h-21.14ZM996.31,403.98v-53.05l14.89-5.29v53.17l-14.89,5.17Z"/>
      </g>
    </g>
  </g>
</svg>