<?xml version="1.0" encoding="UTF-8"?>
<svg id="Layer_2" data-name="Layer 2" xmlns="http://www.w3.org/2000/svg" xmlns:xlink="http://www.w3.org/1999/xlink" viewBox="0 0 229.63 59.85">
  <defs>
    <style>
      .cls-1 {
        fill: #ffc537;
      }

      .cls-2 {
        fill: url(#linear-gradient-3);
      }

      .cls-3 {
        fill: url(#linear-gradient-2);
      }

      .cls-4 {
        fill: url(#linear-gradient);
      }

      .cls-5 {
        fill: #0c436b;
      }
    </style>
    <linearGradient id="linear-gradient" x1="84.74" y1="24.07" x2="78.94" y2="42.52" gradientUnits="userSpaceOnUse">
      <stop offset="0" stop-color="#1e3869"/>
      <stop offset=".85" stop-color="#2564b0"/>
    </linearGradient>
    <linearGradient id="linear-gradient-2" x1="71.96" y1="3.66" x2="94.11" y2="29.55" gradientUnits="userSpaceOnUse">
      <stop offset="0" stop-color="#5dc9e1"/>
      <stop offset=".85" stop-color="#2564b0"/>
    </linearGradient>
    <linearGradient id="linear-gradient-3" x1="82.45" y1="8.8" x2="100.35" y2="8.8" gradientUnits="userSpaceOnUse">
      <stop offset="0" stop-color="#f3dd12"/>
      <stop offset=".22" stop-color="#f2d613"/>
      <stop offset=".53" stop-color="#f2c517"/>
      <stop offset=".85" stop-color="#f1ab1e"/>
    </linearGradient>
  </defs>
  <g id="Layer_1-2" data-name="Layer 1">
    <g>
      <g>
        <g>
          <path class="cls-5" d="M0,59.71v-13.42h2.39v11.29h7.3v2.13H0Z"/>
          <path class="cls-5" d="M19.79,59.81c-1.05,0-2-.19-2.85-.58-.85-.39-1.59-.9-2.2-1.54-.61-.64-1.09-1.36-1.43-2.18-.34-.81-.51-1.66-.51-2.53s.18-1.74.53-2.55c.35-.81.85-1.54,1.48-2.16.63-.63,1.37-1.13,2.23-1.5.85-.37,1.79-.56,2.81-.56s2,.2,2.85.59c.85.4,1.59.91,2.2,1.55.61.64,1.08,1.37,1.41,2.19.33.82.5,1.65.5,2.49,0,.89-.17,1.74-.52,2.55-.35.81-.83,1.54-1.46,2.16-.63.63-1.37,1.13-2.23,1.5-.86.37-1.79.56-2.81.56ZM15.25,53.01c0,.6.11,1.17.31,1.73.21.56.52,1.05.92,1.49.4.44.89.78,1.45,1.04.56.26,1.2.39,1.91.39s1.35-.14,1.91-.41c.56-.27,1.04-.63,1.43-1.06.39-.44.68-.93.88-1.49.2-.56.3-1.12.3-1.7s-.11-1.17-.33-1.73c-.22-.56-.52-1.05-.92-1.48-.4-.43-.87-.77-1.43-1.03-.56-.26-1.18-.39-1.87-.39s-1.37.14-1.93.41c-.56.27-1.04.63-1.43,1.06-.39.44-.69.93-.89,1.49-.21.56-.31,1.12-.31,1.68Z"/>
          <path class="cls-5" d="M42.2,58.16c-1.21,1.1-2.59,1.64-4.14,1.64-.95,0-1.84-.19-2.67-.57-.83-.38-1.55-.89-2.16-1.52-.61-.64-1.1-1.37-1.45-2.2-.35-.83-.53-1.69-.53-2.58s.17-1.79.52-2.6c.35-.81.83-1.53,1.45-2.15s1.35-1.11,2.19-1.46c.84-.35,1.76-.53,2.76-.53,1.37,0,2.53.27,3.47.81.94.54,1.65,1.25,2.12,2.12l-1.84,1.35c-.37-.71-.9-1.24-1.58-1.6-.69-.35-1.44-.53-2.26-.53-.66,0-1.26.13-1.8.39-.54.26-1,.6-1.38,1.03-.38.43-.67.92-.88,1.49-.21.56-.31,1.15-.31,1.77,0,.65.12,1.25.35,1.81.23.56.55,1.06.95,1.48.4.42.88.75,1.44.99.56.24,1.16.36,1.83.36,1.44,0,2.75-.63,3.94-1.89v-1.14h-3.07v-1.77h5.1v6.84h-2.03v-1.55Z"/>
          <path class="cls-5" d="M49.85,59.71v-13.42h2.39v13.42h-2.39Z"/>
          <path class="cls-5" d="M67.08,49.67c-.16-.15-.37-.3-.64-.46-.27-.16-.57-.31-.91-.45-.34-.14-.71-.25-1.11-.33-.4-.08-.81-.12-1.23-.12-.94,0-1.62.15-2.07.45-.44.3-.67.71-.67,1.22,0,.29.07.53.22.73.14.19.36.36.65.51.29.15.66.28,1.1.4.44.12.96.25,1.56.37.73.18,1.38.36,1.96.56.58.19,1.08.44,1.49.74.41.3.73.66.96,1.08.23.42.34.94.34,1.55,0,.71-.14,1.31-.42,1.81-.28.5-.67.91-1.15,1.22-.48.31-1.05.54-1.69.69-.65.15-1.33.22-2.06.22-1.11,0-2.18-.15-3.22-.46-1.03-.31-1.96-.74-2.78-1.31l1.09-2.08c.19.19.46.39.8.59.34.2.72.38,1.15.54.43.16.89.29,1.4.4.51.11,1.04.16,1.61.16.85,0,1.52-.13,1.98-.39.47-.26.7-.64.7-1.16,0-.31-.09-.56-.27-.77-.18-.21-.43-.4-.77-.56-.34-.16-.75-.31-1.23-.44-.48-.13-1.03-.27-1.64-.41-.71-.18-1.33-.37-1.86-.57-.53-.2-.98-.45-1.33-.74-.35-.29-.62-.63-.8-1.02-.18-.39-.27-.85-.27-1.38,0-.66.14-1.25.41-1.75.27-.51.65-.93,1.13-1.28.48-.35,1.03-.61,1.67-.79.64-.18,1.33-.27,2.07-.27,1,0,1.91.14,2.75.44.83.29,1.55.65,2.16,1.09l-1.06,1.96Z"/>
          <path class="cls-5" d="M84.87,48.41h-4.89v11.29h-2.42v-11.29h-4.91v-2.13h12.21v2.13Z"/>
          <path class="cls-5" d="M89.81,59.71v-13.42h2.39v13.42h-2.39Z"/>
          <path class="cls-5" d="M97.56,52.89c0-.81.16-1.61.47-2.41.31-.8.77-1.51,1.38-2.14.6-.63,1.35-1.14,2.23-1.54.88-.4,1.87-.59,2.99-.59,1.32,0,2.46.27,3.42.81.96.54,1.67,1.25,2.14,2.12l-1.89,1.28c-.19-.39-.43-.71-.73-.98-.29-.27-.6-.48-.93-.63-.33-.15-.68-.27-1.04-.34-.36-.07-.71-.11-1.05-.11-.76,0-1.42.14-1.98.41-.56.27-1.04.63-1.41,1.06-.38.44-.67.93-.86,1.49-.19.56-.29,1.11-.29,1.66,0,.61.11,1.2.34,1.77.23.56.54,1.06.95,1.5.41.44.9.78,1.45,1.04.56.26,1.17.39,1.85.39.35,0,.72-.04,1.09-.12.37-.08.73-.21,1.06-.37.34-.17.65-.39.94-.67.29-.27.53-.6.73-.97l2.01,1.16c-.24.5-.58.94-1,1.33-.43.39-.91.71-1.44.98s-1.1.47-1.71.6c-.6.14-1.2.21-1.78.21-1.02,0-1.95-.2-2.79-.6-.85-.4-1.58-.93-2.2-1.58-.62-.65-1.1-1.39-1.44-2.23-.34-.83-.51-1.67-.51-2.53Z"/>
        </g>
        <g>
          <path class="cls-5" d="M127.91,49.67c-.16-.15-.37-.3-.64-.46-.27-.16-.57-.31-.91-.45-.34-.14-.71-.25-1.11-.33-.4-.08-.81-.12-1.23-.12-.94,0-1.62.15-2.07.45-.44.3-.67.71-.67,1.22,0,.29.07.53.22.73.14.19.36.36.65.51.29.15.66.28,1.1.4s.96.25,1.56.37c.73.18,1.38.36,1.96.56.58.19,1.08.44,1.49.74.41.3.73.66.96,1.08.23.42.34.94.34,1.55,0,.71-.14,1.31-.42,1.81-.28.5-.67.91-1.15,1.22-.48.31-1.05.54-1.69.69-.65.15-1.33.22-2.06.22-1.11,0-2.18-.15-3.22-.46-1.03-.31-1.96-.74-2.78-1.31l1.09-2.08c.19.19.46.39.8.59.34.2.72.38,1.15.54.43.16.89.29,1.4.4.51.11,1.04.16,1.61.16.85,0,1.52-.13,1.98-.39.47-.26.7-.64.7-1.16,0-.31-.09-.56-.27-.77-.18-.21-.43-.4-.77-.56-.34-.16-.75-.31-1.23-.44-.48-.13-1.03-.27-1.64-.41-.71-.18-1.33-.37-1.86-.57-.53-.2-.98-.45-1.33-.74-.35-.29-.62-.63-.8-1.02-.18-.39-.27-.85-.27-1.38,0-.66.14-1.25.41-1.75.27-.51.65-.93,1.13-1.28.48-.35,1.03-.61,1.67-.79.64-.18,1.33-.27,2.07-.27,1,0,1.91.14,2.75.44.83.29,1.55.65,2.16,1.09l-1.06,1.96Z"/>
          <path class="cls-5" d="M144.21,57.58v2.13h-10.18v-13.42h9.99v2.13h-7.59v3.48h6.58v1.96h-6.58v3.72h7.79Z"/>
          <path class="cls-5" d="M148.79,59.71v-13.42h6.46c.68,0,1.29.13,1.85.39.56.26,1.04.6,1.45,1.02.41.42.73.89.96,1.42.23.52.34,1.06.34,1.61,0,.44-.07.86-.21,1.27-.14.41-.33.79-.58,1.14-.25.35-.55.65-.89.92-.35.27-.74.47-1.17.62l3.53,5.05h-2.76l-3.22-4.57h-3.36v4.57h-2.39ZM151.19,53.03h4.01c.64,0,1.17-.23,1.58-.68.41-.45.62-1,.62-1.64,0-.32-.06-.62-.18-.91-.12-.28-.29-.52-.51-.73-.22-.2-.47-.36-.75-.48-.28-.12-.58-.18-.88-.18h-3.89v4.62Z"/>
          <path class="cls-5" d="M165.5,46.29l4.4,10.04,4.38-10.04h2.56l-5.93,13.42h-2.06l-5.93-13.42h2.56Z"/>
          <path class="cls-5" d="M180.75,59.71v-13.42h2.39v13.42h-2.39Z"/>
          <path class="cls-5" d="M187.71,52.89c0-.81.16-1.61.47-2.41.31-.8.77-1.51,1.38-2.14.6-.63,1.35-1.14,2.23-1.54.88-.4,1.87-.59,2.99-.59,1.32,0,2.46.27,3.42.81.96.54,1.67,1.25,2.14,2.12l-1.89,1.28c-.19-.39-.43-.71-.73-.98-.29-.27-.6-.48-.93-.63-.33-.15-.68-.27-1.04-.34s-.71-.11-1.05-.11c-.76,0-1.42.14-1.98.41-.56.27-1.04.63-1.41,1.06-.38.44-.67.93-.86,1.49-.19.56-.29,1.11-.29,1.66,0,.61.11,1.2.34,1.77.23.56.54,1.06.95,1.5.41.44.9.78,1.45,1.04.56.26,1.17.39,1.85.39.35,0,.72-.04,1.09-.12.37-.08.73-.21,1.06-.37.34-.17.65-.39.94-.67.29-.27.53-.6.73-.97l2.01,1.16c-.24.5-.58.94-1,1.33-.43.39-.91.71-1.44.98s-1.1.47-1.71.6c-.6.14-1.2.21-1.78.21-1.02,0-1.95-.2-2.79-.6-.85-.4-1.58-.93-2.2-1.58-.62-.65-1.1-1.39-1.44-2.23-.34-.83-.51-1.67-.51-2.53Z"/>
          <path class="cls-5" d="M215.08,57.58v2.13h-10.18v-13.42h9.99v2.13h-7.59v3.48h6.58v1.96h-6.58v3.72h7.79Z"/>
          <path class="cls-5" d="M227.99,49.67c-.16-.15-.37-.3-.64-.46-.27-.16-.57-.31-.91-.45-.34-.14-.71-.25-1.11-.33-.4-.08-.81-.12-1.23-.12-.94,0-1.62.15-2.07.45-.44.3-.67.71-.67,1.22,0,.29.07.53.22.73.14.19.36.36.65.51.29.15.66.28,1.1.4s.96.25,1.56.37c.73.18,1.38.36,1.96.56.58.19,1.08.44,1.49.74.41.3.73.66.96,1.08.23.42.34.94.34,1.55,0,.71-.14,1.31-.42,1.81-.28.5-.67.91-1.15,1.22-.48.31-1.05.54-1.69.69-.65.15-1.33.22-2.06.22-1.11,0-2.18-.15-3.22-.46-1.03-.31-1.96-.74-2.78-1.31l1.09-2.08c.19.19.46.39.8.59.34.2.72.38,1.15.54.43.16.89.29,1.4.4.51.11,1.04.16,1.61.16.85,0,1.52-.13,1.98-.39.47-.26.7-.64.7-1.16,0-.31-.09-.56-.27-.77-.18-.21-.43-.4-.77-.56-.34-.16-.75-.31-1.23-.44-.48-.13-1.03-.27-1.64-.41-.71-.18-1.33-.37-1.86-.57-.53-.2-.98-.45-1.33-.74-.35-.29-.62-.63-.8-1.02-.18-.39-.27-.85-.27-1.38,0-.66.14-1.25.41-1.75.27-.51.65-.93,1.13-1.28.48-.35,1.03-.61,1.67-.79.64-.18,1.33-.27,2.07-.27,1,0,1.91.14,2.75.44.83.29,1.55.65,2.16,1.09l-1.06,1.96Z"/>
        </g>
      </g>
      <g>
        <g>
          <polygon class="cls-1" points="100.35 2.7 95.38 16.19 85.46 4.86 82.45 1.41 100.35 2.7"/>
          <polygon class="cls-4" points="89.11 33.18 88.57 34.64 88.04 36.07 86.58 40.04 72.49 40.04 74.33 35.06 74.76 33.88 78.76 23.03 79.2 21.85 88.99 33.04 89 33.05 89 33.05 89.11 33.18"/>
          <path class="cls-3" d="M94.18,19.42l-5.07,13.74-.11-.11h0s0-.01,0-.01l-9.79-11.2L60.11.03l13.38.93c2.87.21,5.2.96,8,4.37l2.7,2.99,10,11.09Z"/>
          <polygon class="cls-2" points="100.35 2.7 95.38 16.19 85.46 4.86 82.45 1.41 100.35 2.7"/>
        </g>
        <g>
          <path class="cls-5" d="M.7,40.01L15.27,0h9.09l14.63,40.01h-8.46L18.19,4.34h3.26l-12.35,35.66H.7ZM7.44,31.04l2.11-6.23h20.58l2.11,6.23H7.44Z"/>
          <path class="cls-5" d="M41.79,40.01V0h8v33.78h17.49v6.23h-25.49Z"/>
        </g>
        <g>
          <path class="cls-5" d="M95.07,40.01L109.65,0h9.09l14.63,40.01h-8.46l-12.35-35.66h3.26l-12.35,35.66h-8.4ZM101.82,31.04l2.11-6.23h20.58l2.11,6.23h-24.81Z"/>
          <path class="cls-5" d="M136.17,40.01V0h9.6l13.89,33.49-3.37.46L170.12,0h9.55v40.01h-8V6.17l2.69,2-13.2,31.84h-6.4l-13.26-31.84,2.69-2v33.84h-8Z"/>
          <path class="cls-5" d="M185.04,40.01V0h9.6l13.89,33.49-3.37.46L218.99,0h9.54v40.01h-8V6.17l2.69,2-13.2,31.84h-6.4l-13.26-31.84,2.69-2v33.84h-8Z"/>
        </g>
      </g>
    </g>
  </g>
</svg>