<?xml version="1.0" encoding="UTF-8" standalone="no"?>
<svg
   id="Layer_1"
   enable-background="new 0 0 512 512"
   height="509.99902"
   viewBox="0 0 510.00198 509.99902"
   width="510.00198"
   version="1.1"
   xml:space="preserve"
   xmlns="http://www.w3.org/2000/svg"
   xmlns:svg="http://www.w3.org/2000/svg"><defs
     id="defs1" /><path
     d="m 509.99999,245.00303 c 0,-7.352 -5.981,-13.334 -13.336,-13.336 h -28.668 c -4.395,-40.756 -20.146,-78.775 -45.893,-110.772 l 20.278,-20.278 c 2.516,-2.515996 3.901,-5.863996 3.902,-9.429996 0,-3.566 -1.386,-6.916 -3.902,-9.431 l -14.137,-14.137 c -5.199,-5.199 -13.659,-5.201 -18.86,0 l -20.278,20.278 c -31.996,-25.745 -70.016,-41.497 -110.772,-45.893 v -28.669 C 278.33299,5.9830342 272.34999,3.4153864e-5 264.99699,3.4153864e-5 h -19.993 c -7.354,0 -13.336,5.982000046136 -13.336,13.335999846136 v 28.669 c -40.757,4.396 -78.775,20.147 -110.771,45.893 l -20.279,-20.279 c -2.515999,-2.515 -5.863999,-3.9 -9.428999,-3.901 -0.001,0 -0.001,0 -0.002,0 -3.565,0 -6.915,1.386 -9.43,3.901 l -14.138,14.138 c -5.199,5.2 -5.199,13.66 0,18.858996 l 20.279,20.279 c -25.747,31.997 -41.498,70.016 -45.893,110.772 h -28.669 c -7.3540005,0 -13.3360005041448,5.983 -13.3360005041448,13.336 v 19.993 c 0,7.354 5.9820000041448,13.336 13.3360005041448,13.336 h 28.669 c 4.395,40.756 20.147,78.775 45.892,110.772 l -20.279,20.278 c -5.199,5.2 -5.199,13.66 10e-4,18.86 l 14.138,14.138 c 2.601,2.6 6.016,3.899 9.43,3.899 3.415,0 6.83,-1.3 9.430999,-3.899 l 20.278,-20.279 c 31.997,25.746 70.016,41.497 110.772,45.892 v 28.67 c 0,7.354 5.983,13.336 13.337,13.336 h 19.993 c 7.354,0 13.336,-5.982 13.336,-13.336 v -28.67 c 40.757,-4.395 78.776,-20.147 110.771,-45.892 l 20.28,20.281 c 2.6,2.599 6.015,3.898 9.429,3.898 3.415,-0.001 6.831,-1.301 9.431,-3.899 l 14.139,-14.14 c 5.196,-5.199 5.196,-13.658 -10e-4,-18.859 l -20.279,-20.278 c 25.746,-31.997 41.498,-70.016 45.893,-110.772 h 28.668 c 7.354,0 13.337,-5.982 13.337,-13.336 z m -91.186,-164.185996 10.37,10.37 -43.225,43.223996 c -1.5,1.5 -2.343,3.535 -2.343,5.657 0,2.122 0.843,4.157 2.344,5.657 l 4.94,4.94 -36.208,4.642 4.643,-36.208 4.941,4.941 c 3.123,3.124 8.188,3.124 11.313,0 z m -171.147,-3.689 v -61.128 h 14.666 l -10e-4,61.127 c 0,2.122 0.843,4.156 2.343,5.657 1.501,1.5 3.535,2.343 5.657,2.343 h 6.987 l -22.319,28.884996 -22.32,-28.883996 h 6.986 c 4.418,0 8.001,-3.582 8.001,-8 z m -156.479999,3.688 43.222999,43.223996 c 3.125,3.125 8.19,3.125 11.313,0 l 4.941,-4.94 4.642,36.207 -36.207,-4.641 4.94,-4.94 c 1.501,-1.5 2.344,-3.535 2.344,-5.657 0,-2.122 -0.843,-4.156 -2.343,-5.657 L 80.816991,91.186034 Z m -75.187,166.850996 h 61.128 c 2.122,0 4.156,-0.843 5.657,-2.343 1.5,-1.5 2.343,-3.535 2.343,-5.657 v -6.987 l 28.882999,22.32 -28.883999,22.32 v -6.987 c 0,-4.418 -3.582,-8 -8,-8 l -61.127,-0.001 z m 75.186,181.516 -10.37,-10.37 43.224999,-43.223 c 1.5,-1.501 2.343,-3.535 2.343,-5.657 0,-2.122 -0.843,-4.157 -2.344,-5.657 l -4.94,-4.94 36.207,-4.642 -4.642,36.207 -4.94,-4.941 c -3.126,-3.124 -8.19,-3.122 -11.314,0 z m 171.146999,3.689 v 61.128 h -14.666 l 0.001,-61.128 c 0,-2.122 -0.843,-4.156 -2.343,-5.657 -1.501,-1.5 -3.535,-2.343 -5.657,-2.343 h -6.986 l 22.318,-28.883 22.319,28.884 h -6.986 c -4.417,-0.001 -8,3.581 -8,7.999 z m 156.48,-3.687 -43.223,-43.225 c -1.501,-1.501 -3.535,-2.344 -5.657,-2.344 -2.122,0 -4.156,0.843 -5.657,2.343 l -4.94,4.941 -4.642,-36.207 36.207,4.642 -4.941,4.94 c -3.124,3.125 -3.124,8.189 0,11.314 l 43.225,43.224 z m -8.094,-51.463 -7.789,-7.789 4.936,-4.936 c 3.286,-3.282 4.395,-8.058 2.893,-12.463 -1.493,-4.377 -5.283,-7.463 -9.889,-8.052 l -49.185,-6.306 c -3.736,-0.472 -7.41,0.775 -10.072,3.438 -2.663,2.664 -3.915,6.335 -3.435,10.071 l 6.304,49.182 c 0.59,4.606 3.676,8.396 8.052,9.889 4.405,1.506 9.18,0.396 12.46,-2.887 l 4.939,-4.94 7.789,7.789 c -28.862,22.817 -62.914,36.926 -99.388,41.178 v -11.025 h 6.979 0.008 c 4.642,0 8.799,-2.593 10.851,-6.768 2.039,-4.15 1.541,-9.012 -1.299,-12.686 l -30.319,-39.237 c -2.305,-2.981 -5.786,-4.69 -9.552,-4.69 -3.767,0 -7.248,1.709 -9.553,4.691 l -30.317,39.234 c -2.841,3.675 -3.34,8.536 -1.301,12.688 2.051,4.175 6.208,6.768 10.846,6.768 h 0.007 6.985 v 11.025 c -36.474,-4.253 -70.527,-18.362 -99.39,-41.178 l 7.789,-7.789 4.936,4.936 c 3.283,3.287 8.061,4.391 12.463,2.893 4.377,-1.493 7.463,-5.283 8.052,-9.889 l 6.305,-49.182 c 0.48,-3.737 -0.771,-7.408 -3.435,-10.072 -2.662,-2.662 -6.325,-3.92 -10.074,-3.438 l -49.184,6.305 c -4.605,0.591 -8.395,3.677 -9.887999,8.052 -1.502,4.403 -0.395,9.178 2.888999,12.46 l 4.939,4.938 -7.788999,7.789 c -22.817,-28.862 -36.926,-62.915 -41.178,-99.389 h 11.025 v 6.979 c -0.003,4.646 2.591,8.806 6.768,10.858 1.695,0.833 3.508,1.242 5.311,1.242 2.612,0 5.202,-0.86 7.376,-2.541 l 39.233999,-30.318 c 2.982,-2.305 4.693,-5.786 4.693,-9.553 0,-3.767 -1.711,-7.249 -4.692,-9.552 l -39.235999,-30.317 c -3.676,-2.842 -8.536,-3.339 -12.688,-1.299 -4.177,2.052 -6.77,6.212 -6.767,10.852 v 6.985 h -11.025 c 4.253,-36.473 18.361,-70.526 41.178,-99.389 l 7.789999,7.789 -4.936,4.935 c -3.285999,3.282 -4.394999,8.058 -2.892999,12.463 1.492999,4.377 5.282999,7.462 9.888999,8.052 l 49.183,6.305 c 0.524,0.067 1.047,0.1 1.565,0.1 3.183,0 6.219,-1.247 8.509,-3.538 2.663,-2.664 3.915,-6.335 3.435,-10.071 l -6.304,-49.182 c -0.59,-4.607 -3.676,-8.396 -8.052,-9.889996 -4.403,-1.502 -9.18,-0.395 -12.459,2.887996 l -4.94,4.939 -7.789,-7.788996 c 28.861,-22.817 62.915,-36.925 99.388,-41.178 v 11.025 h -6.979 c -0.003,0 -0.005,0 -0.008,0 -4.642,0 -8.8,2.593 -10.851,6.768 -2.039,4.15 -1.541,9.012 1.299,12.686 l 30.319,39.235996 c 2.304,2.982 5.786,4.692 9.552,4.692 3.767,0 7.249,-1.71 9.553,-4.692 l 30.317,-39.233996 c 2.841,-3.674 3.339,-8.536 1.301,-12.686 -2.051,-4.176 -6.208,-6.77 -10.849,-6.77 -10e-4,0 -0.003,0 -0.004,0 h -6.985 v -11.025 c 36.474,4.253 70.527,18.362 99.389,41.179 l -7.789,7.788996 -4.935,-4.935 c -3.283,-3.287996 -8.062,-4.395996 -12.463,-2.892996 -4.378,1.492996 -7.464,5.282996 -8.053,9.888996 l -6.307,49.184 c -0.479,3.738 0.774,7.409 3.438,10.072 2.29,2.29 5.324,3.537 8.507,3.536 0.519,0 1.041,-0.033 1.565,-0.1 l 49.181,-6.305 c 4.607,-0.59 8.396,-3.675 9.89,-8.051 1.503,-4.404 0.396,-9.179 -2.888,-12.46 l -4.939,-4.939 7.789,-7.789 c 22.816,28.863 36.925,62.916 41.178,99.389 h -11.025 v -6.979 c 0.003,-4.645 -2.59,-8.805 -6.768,-10.857 -4.149,-2.04 -9.013,-1.542 -12.687,1.298 l -39.234,30.319 c -2.982,2.305 -4.693,5.786 -4.693,9.553 0,3.767 1.711,7.248 4.692,9.552 l 39.234,30.318 c 2.175,1.682 4.765,2.542 7.377,2.542 1.802,0 3.615,-0.409 5.309,-1.241 4.177,-2.052 6.771,-6.211 6.77,-10.853 v -6.985 h 11.025 c -4.25,36.47 -18.359,70.524 -41.176,99.387 z m 22.154,-115.389 c -4.418,0 -8,3.582 -8,8 v 6.987 l -28.884,-22.32 28.884,-22.321 v 6.987 c 0,4.418 3.582,8 8,8 h 61.127 v 14.667 z m -177.873,-116.564 c -60.229,0 -109.229,49 -109.229,109.23 0,60.23 49,109.23 109.229,109.23 60.229,0 109.23,-49.001 109.23,-109.23 0,-60.229 -49.001,-109.23 -109.23,-109.23 z m -55.315,184.229 c 12.529,-18.129 33.163,-29.146 55.316,-29.146 22.153,0 42.787,11.016 55.315,29.145 -15.485,11.452 -34.623,18.233 -55.316,18.233 -20.694,0 -39.831,-6.781 -55.315,-18.232 z m 55.315,-49.072 c -18.009,0 -32.659,-14.651 -32.659,-32.66 0,-18.009 14.65,-32.659 32.659,-32.659 18.009,0 32.659,14.65 32.659,32.659 0,18.009 -14.65,32.66 -32.659,32.66 z m 67.382,38.441 c -10.307,-14.221 -24.726,-24.721 -41.064,-30.204 13.428,-8.671 22.342,-23.758 22.342,-40.896 0,-26.831 -21.828,-48.659 -48.659,-48.659 -26.831,0 -48.659,21.828 -48.659,48.659 0,17.139 8.915,32.225 22.342,40.896 -16.339,5.484 -30.757,15.984 -41.065,30.205 -16.004,-16.747 -25.848,-39.429 -25.848,-64.368 0,-51.407 41.822,-93.23 93.229,-93.23 51.407,0 93.23,41.823 93.23,93.23 0,24.938 -9.843,47.62 -25.848,64.367 z"
     id="path1-5"
     style="fill:#ffffff;fill-opacity:1" /></svg>
