<svg id="Layer_1" enable-background="new 0 0 512 512" viewBox="0 0 512 512" xmlns="http://www.w3.org/2000/svg"><path d="m511 246.003c0-7.352-5.981-13.334-13.336-13.336h-28.668c-4.395-40.756-20.146-78.775-45.893-110.772l20.278-20.278c2.516-2.516 3.901-5.864 3.902-9.43 0-3.566-1.386-6.916-3.902-9.431l-14.137-14.137c-5.199-5.199-13.659-5.201-18.86 0l-20.278 20.278c-31.996-25.745-70.016-41.497-110.772-45.893v-28.669c-.001-7.352-5.984-13.335-13.337-13.335h-19.993c-7.354 0-13.336 5.982-13.336 13.336v28.669c-40.757 4.396-78.775 20.147-110.771 45.893l-20.279-20.279c-2.516-2.515-5.864-3.9-9.429-3.901-.001 0-.001 0-.002 0-3.565 0-6.915 1.386-9.43 3.901l-14.138 14.138c-5.199 5.2-5.199 13.66 0 18.859l20.279 20.279c-25.747 31.997-41.498 70.016-45.893 110.772h-28.669c-7.354 0-13.336 5.983-13.336 13.336v19.993c0 7.354 5.982 13.336 13.336 13.336h28.669c4.395 40.756 20.147 78.775 45.892 110.772l-20.279 20.278c-5.199 5.2-5.199 13.66.001 18.86l14.138 14.138c2.601 2.6 6.016 3.899 9.43 3.899 3.415 0 6.83-1.3 9.431-3.899l20.278-20.279c31.997 25.746 70.016 41.497 110.772 45.892v28.67c0 7.354 5.983 13.336 13.337 13.336h19.993c7.354 0 13.336-5.982 13.336-13.336v-28.67c40.757-4.395 78.776-20.147 110.771-45.892l20.28 20.281c2.6 2.599 6.015 3.898 9.429 3.898 3.415-.001 6.831-1.301 9.431-3.899l14.139-14.14c5.196-5.199 5.196-13.658-.001-18.859l-20.279-20.278c25.746-31.997 41.498-70.016 45.893-110.772h28.668c7.354 0 13.337-5.982 13.337-13.336zm-91.186-164.186 10.37 10.37-43.225 43.224c-1.5 1.5-2.343 3.535-2.343 5.657s.843 4.157 2.344 5.657l4.94 4.94-36.208 4.642 4.643-36.208 4.941 4.941c3.123 3.124 8.188 3.124 11.313 0zm-171.147-3.689v-61.128h14.666l-.001 61.127c0 2.122.843 4.156 2.343 5.657 1.501 1.5 3.535 2.343 5.657 2.343h6.987l-22.319 28.885-22.32-28.884h6.986c4.418 0 8.001-3.582 8.001-8zm-156.48 3.688 43.223 43.224c3.125 3.125 8.19 3.125 11.313 0l4.941-4.94 4.642 36.207-36.207-4.641 4.94-4.94c1.501-1.5 2.344-3.535 2.344-5.657s-.843-4.156-2.343-5.657l-43.223-43.226zm-75.187 166.851h61.128c2.122 0 4.156-.843 5.657-2.343 1.5-1.5 2.343-3.535 2.343-5.657v-6.987l28.883 22.32-28.884 22.32v-6.987c0-4.418-3.582-8-8-8l-61.127-.001zm75.186 181.516-10.37-10.37 43.225-43.223c1.5-1.501 2.343-3.535 2.343-5.657s-.843-4.157-2.344-5.657l-4.94-4.94 36.207-4.642-4.642 36.207-4.94-4.941c-3.126-3.124-8.19-3.122-11.314 0zm171.147 3.689v61.128h-14.666l.001-61.128c0-2.122-.843-4.156-2.343-5.657-1.501-1.5-3.535-2.343-5.657-2.343h-6.986l22.318-28.883 22.319 28.884h-6.986c-4.417-.001-8 3.581-8 7.999zm156.48-3.687-43.223-43.225c-1.501-1.501-3.535-2.344-5.657-2.344s-4.156.843-5.657 2.343l-4.94 4.941-4.642-36.207 36.207 4.642-4.941 4.94c-3.124 3.125-3.124 8.189 0 11.314l43.225 43.224zm-8.094-51.463-7.789-7.789 4.936-4.936c3.286-3.282 4.395-8.058 2.893-12.463-1.493-4.377-5.283-7.463-9.889-8.052l-49.185-6.306c-3.736-.472-7.41.775-10.072 3.438-2.663 2.664-3.915 6.335-3.435 10.071l6.304 49.182c.59 4.606 3.676 8.396 8.052 9.889 4.405 1.506 9.18.396 12.46-2.887l4.939-4.94 7.789 7.789c-28.862 22.817-62.914 36.926-99.388 41.178v-11.025h6.979.008c4.642 0 8.799-2.593 10.851-6.768 2.039-4.15 1.541-9.012-1.299-12.686l-30.319-39.237c-2.305-2.981-5.786-4.69-9.552-4.69-3.767 0-7.248 1.709-9.553 4.691l-30.317 39.234c-2.841 3.675-3.34 8.536-1.301 12.688 2.051 4.175 6.208 6.768 10.846 6.768h.007 6.985v11.025c-36.474-4.253-70.527-18.362-99.39-41.178l7.789-7.789 4.936 4.936c3.283 3.287 8.061 4.391 12.463 2.893 4.377-1.493 7.463-5.283 8.052-9.889l6.305-49.182c.48-3.737-.771-7.408-3.435-10.072-2.662-2.662-6.325-3.92-10.074-3.438l-49.184 6.305c-4.605.591-8.395 3.677-9.888 8.052-1.502 4.403-.395 9.178 2.889 12.46l4.939 4.938-7.789 7.789c-22.817-28.862-36.926-62.915-41.178-99.389h11.025v6.979c-.003 4.646 2.591 8.806 6.768 10.858 1.695.833 3.508 1.242 5.311 1.242 2.612 0 5.202-.86 7.376-2.541l39.234-30.318c2.982-2.305 4.693-5.786 4.693-9.553s-1.711-7.249-4.692-9.552l-39.236-30.317c-3.676-2.842-8.536-3.339-12.688-1.299-4.177 2.052-6.77 6.212-6.767 10.852v6.985h-11.025c4.253-36.473 18.361-70.526 41.178-99.389l7.79 7.789-4.936 4.935c-3.286 3.282-4.395 8.058-2.893 12.463 1.493 4.377 5.283 7.462 9.889 8.052l49.183 6.305c.524.067 1.047.1 1.565.1 3.183 0 6.219-1.247 8.509-3.538 2.663-2.664 3.915-6.335 3.435-10.071l-6.304-49.182c-.59-4.607-3.676-8.396-8.052-9.89-4.403-1.502-9.18-.395-12.459 2.888l-4.94 4.939-7.789-7.789c28.861-22.817 62.915-36.925 99.388-41.178v11.025h-6.979c-.003 0-.005 0-.008 0-4.642 0-8.8 2.593-10.851 6.768-2.039 4.15-1.541 9.012 1.299 12.686l30.319 39.236c2.304 2.982 5.786 4.692 9.552 4.692 3.767 0 7.249-1.71 9.553-4.692l30.317-39.234c2.841-3.674 3.339-8.536 1.301-12.686-2.051-4.176-6.208-6.77-10.849-6.77-.001 0-.003 0-.004 0h-6.985v-11.025c36.474 4.253 70.527 18.362 99.389 41.179l-7.789 7.789-4.935-4.935c-3.283-3.288-8.062-4.396-12.463-2.893-4.378 1.493-7.464 5.283-8.053 9.889l-6.307 49.184c-.479 3.738.774 7.409 3.438 10.072 2.29 2.29 5.324 3.537 8.507 3.536.519 0 1.041-.033 1.565-.1l49.181-6.305c4.607-.59 8.396-3.675 9.89-8.051 1.503-4.404.396-9.179-2.888-12.46l-4.939-4.939 7.789-7.789c22.816 28.863 36.925 62.916 41.178 99.389h-11.025v-6.979c.003-4.645-2.59-8.805-6.768-10.857-4.149-2.04-9.013-1.542-12.687 1.298l-39.234 30.319c-2.982 2.305-4.693 5.786-4.693 9.553s1.711 7.248 4.692 9.552l39.234 30.318c2.175 1.682 4.765 2.542 7.377 2.542 1.802 0 3.615-.409 5.309-1.241 4.177-2.052 6.771-6.211 6.77-10.853v-6.985h11.025c-4.25 36.47-18.359 70.524-41.176 99.387zm22.154-115.389c-4.418 0-8 3.582-8 8v6.987l-28.884-22.32 28.884-22.321v6.987c0 4.418 3.582 8 8 8h61.127v14.667zm-177.873-116.564c-60.229 0-109.229 49-109.229 109.23s49 109.23 109.229 109.23 109.23-49.001 109.23-109.23-49.001-109.23-109.23-109.23zm-55.315 184.229c12.529-18.129 33.163-29.146 55.316-29.146s42.787 11.016 55.315 29.145c-15.485 11.452-34.623 18.233-55.316 18.233-20.694 0-39.831-6.781-55.315-18.232zm55.315-49.072c-18.009 0-32.659-14.651-32.659-32.66s14.65-32.659 32.659-32.659 32.659 14.65 32.659 32.659-14.65 32.66-32.659 32.66zm67.382 38.441c-10.307-14.221-24.726-24.721-41.064-30.204 13.428-8.671 22.342-23.758 22.342-40.896 0-26.831-21.828-48.659-48.659-48.659s-48.659 21.828-48.659 48.659c0 17.139 8.915 32.225 22.342 40.896-16.339 5.484-30.757 15.984-41.065 30.205-16.004-16.747-25.848-39.429-25.848-64.368 0-51.407 41.822-93.23 93.229-93.23s93.23 41.823 93.23 93.23c0 24.938-9.843 47.62-25.848 64.367z"/></svg>