<?xml version="1.0" encoding="UTF-8" standalone="no"?>
<svg
   id="Layer_1"
   enable-background="new 0 0 512 512"
   height="495.98801"
   viewBox="0 0 443.25546 495.98801"
   width="443.25546"
   version="1.1"
   xml:space="preserve"
   xmlns="http://www.w3.org/2000/svg"
   xmlns:svg="http://www.w3.org/2000/svg"><defs
     id="defs1" /><path
     d="m 438.62146,321.469 c -4.305,-7.188 -21.943,-28.549 -68.152,-1.638 l -80.25,46.742 c -3.308,1.926 -6.663,3.378 -10.131,4.367 1.125,-2.131 2.037,-4.463 2.711,-6.98 4.223,-15.764 -5.132,-32.216 -21.297,-37.457 -0.342,-0.111 -0.692,-0.199 -1.047,-0.263 -22.991,-4.147 -45.717,-12.363 -63.977,-18.964 -6.362,-2.3 -12.371,-4.472 -17.488,-6.131 -20.873,-6.772 -39.663,1.563 -55.289,10.611 l -58.937003,34.123 -5.192,-9.174 c -2.601,-4.595 -6.847,-7.906 -11.957,-9.322 -5.107,-1.416 -10.454,-0.763 -15.049,1.837 l -22.515,12.743 c -9.50900054,5.382 -12.8660005,17.496 -7.4850005,27.005 L 68.763457,485.934 c 2.601,4.595 6.847,7.906 11.957,9.322 1.767,0.49 3.562,0.732 5.344,0.732 3.372,0 6.699,-0.867 9.705,-2.568 l 22.517003,-12.744 c 9.509,-5.382 12.867,-17.496 7.485,-27.005 l -6.396,-11.301 12.54,-7.239 102.432,27.446 c 5.749,1.541 11.467,2.307 17.093,2.306 11.378,0 22.371,-3.133 32.419,-9.319 l 145.635,-89.676 c 13.661,-8.412 18.012,-29.584 9.127,-44.419 z m -328.217,145.282 -22.517003,12.744 c -1.181,0.669 -2.32,0.501 -2.895,0.343 -0.574,-0.159 -1.637,-0.603 -2.305,-1.784 l -66.197,-116.966 c -1.019,-1.8 -0.358,-4.182 1.441,-5.2 l 22.516,-12.743 c 0.657,-0.372 1.302,-0.485 1.843,-0.485 0.431,0 0.797,0.072 1.052,0.143 0.574,0.159 1.636,0.602 2.305,1.783 l 66.198003,116.965 c 1.019,1.801 0.358,4.182 -1.441,5.2 z m 136.821,-80.757 9.981,1.623 c 15.134,2.42 28.566,0.059 41.064,-7.218 l 80.251,-46.742 c 22.63,-13.181 39.966,-14.665 46.373,-3.968 4.387,7.325 2.474,18.717 -3.792,22.574 l -145.634,89.676 c -11.335,6.978 -23.776,8.723 -36.981,5.183 l -105.634,-28.304 c -2.049,-0.547 -4.232,-0.261 -6.07,0.799 l -15.29,8.827 -38.848003,-68.641 59.072003,-34.202 c 13.208,-7.647 27.478,-14.061 42.336,-9.239 4.865,1.578 10.481,3.608 16.984,5.959 18.675,6.752 41.879,15.141 65.992,19.557 7.906,2.795 12.327,10.425 10.313,17.939 -2.652,9.897 -10.955,11.123 -17.574,10.368 -11.766,-2.423 -22.965,-5.618 -34.814,-9.002 -5.639,-1.61 -11.47,-3.276 -17.467,-4.883 -4.266,-1.141 -8.654,1.39 -9.798,5.657 -1.144,4.268 1.389,8.654 5.657,9.798 5.87,1.573 11.637,3.22 17.214,4.812 12.267,3.503 23.853,6.812 36.345,9.366 M 46.548457,364.97 c 0.642,4.393 -2.398,8.475 -6.792,9.117 -4.393,0.642 -8.475,-2.398 -9.117,-6.792 -0.642,-4.393 2.398,-8.475 6.792,-9.117 4.393,-0.642 8.475,2.399 9.117,6.792 z M 164.54646,124.949 c 3.701,7.218 5.559,10.84 6.09,13.852 0.531,3.011 0.024,7.05 -0.984,15.098 -0.254,2.025 -0.537,4.28 -0.84,6.814 -1.666,13.937 5.884,27.014 18.787,32.541 2.346,1.005 4.44,1.887 6.32,2.68 0.342,0.144 0.668,0.282 0.995,0.42 l -29.734,63.864 c -1.258,2.702 -0.91,5.878 0.903,8.244 1.813,2.365 4.789,3.528 7.726,3.013 l 32.683,-5.71 16.669,28.686 c 1.436,2.471 4.076,3.98 6.916,3.98 0.121,0 0.243,-0.003 0.364,-0.008 2.977,-0.135 5.632,-1.914 6.89,-4.615 l 29.517,-63.399 -0.583,-0.271 c 5.054,-1.529 8.036,-2.298 10.481,-2.298 3.058,0 6.948,1.2 14.698,3.592 0.813,0.251 1.674,0.516 2.568,0.791 l 21.302,49.456 c 1.179,2.737 3.781,4.592 6.753,4.813 0.199,0.015 0.398,0.022 0.596,0.022 2.752,0 5.33,-1.419 6.796,-3.782 l 17.494,-28.19 32.502,6.657 c 2.92,0.598 5.93,-0.477 7.81,-2.788 1.881,-2.312 2.321,-5.477 1.143,-8.214 l -24.212,-56.216 c 0.551,-0.234 1.117,-0.476 1.698,-0.725 12.903,-5.526 20.453,-18.604 18.787,-32.541 -0.303,-2.534 -0.585,-4.789 -0.839,-6.813 -1.01,-8.048 -1.516,-12.087 -0.985,-15.099 0.531,-3.011 2.389,-6.634 6.089,-13.851 0.931,-1.816 1.968,-3.838 3.12,-6.115 6.333,-12.527 3.71,-27.398 -6.524,-37.003 -1.861,-1.747 -3.526,-3.292 -5.022,-4.68 -5.946,-5.517 -8.931,-8.285 -10.46,-10.934 -1.529,-2.648 -2.435,-6.617 -4.238,-14.524 -0.454,-1.99 -0.959,-4.206 -1.542,-6.691 -3.201,-13.667 -14.769,-23.373 -28.784,-24.152 -2.548,-0.142 -4.817,-0.254 -6.855,-0.356 -8.101,-0.403 -12.167,-0.606 -15.041,-1.652 -2.874,-1.046 -6.119,-3.504 -12.583,-8.402 -1.627,-1.2319999 -3.438,-2.6039999 -5.481,-4.1339999 -11.237,-8.412 -26.337,-8.412 -37.574,0 -2.043,1.53 -3.854,2.902 -5.481,4.1339999 -6.465,4.898 -9.709,7.356 -12.583,8.402 -2.874,1.046 -6.939,1.249 -15.041,1.652 -2.038,0.102 -4.308,0.214 -6.855,0.356 -14.015,0.78 -25.583,10.486 -28.784,24.152 -0.582,2.485 -1.087,4.7 -1.542,6.69 -1.804,7.908 -2.709,11.876 -4.239,14.525 -1.529,2.648 -4.514,5.417 -10.459,10.933 -1.496,1.388 -3.162,2.934 -5.023,4.68 -10.235,9.606 -12.857,24.476 -6.525,37.003 1.148,2.276 2.185,4.298 3.116,6.113 z m 64.749,148.21 -11.77,-20.255 c -1.683,-2.896 -4.99,-4.436 -8.294,-3.861 l -23.077,4.032 22.811,-48.995 c 1.888,2.103 3.995,5.363 7.472,10.748 1.107,1.715 2.34,3.624 3.737,5.761 5.935,9.075 15.752,14.221 26.107,14.221 0.293,0 0.589,-0.024 0.883,-0.032 z m 115.405,-35.412 c -3.282,-0.672 -6.636,0.772 -8.402,3.619 l -12.352,19.905 -11.59,-26.909 c 8.389,-1.408 16.022,-6.22 20.961,-13.773 1.397,-2.136 2.629,-4.044 3.736,-5.759 4.4,-6.814 6.608,-10.234 8.951,-12.2 0.914,-0.767 2.048,-1.477 3.53,-2.243 l 18.115,42.06 z M 178.90146,93.498 c 1.836,-1.723 3.479,-3.248 4.956,-4.617 14.2,-13.173 15.107,-14.745 19.416,-33.629 0.448,-1.963 0.946,-4.148 1.521,-6.6 1.592,-6.796 7.125,-11.438 14.094,-11.826 2.514,-0.14 4.752,-0.251 6.763,-0.352 19.346,-0.963 21.051,-1.584 36.49,-13.281 1.604,-1.216 3.392,-2.57 5.408,-4.079 2.794,-2.092 5.996,-3.137 9.199,-3.137 3.202,0 6.404,1.045 9.199,3.137 2.016,1.508 3.803,2.862 5.407,4.078 15.439,11.697 17.144,12.317 36.49,13.281 2.011,0.1 4.249,0.211 6.763,0.352 6.97,0.388 12.502,5.03 14.094,11.826 0.574,2.452 1.073,4.638 1.521,6.601 4.308,18.883 5.215,20.455 19.416,33.628 1.476,1.369 3.119,2.894 4.955,4.617 5.09,4.777 6.344,11.889 3.194,18.119 -1.136,2.247 -2.159,4.242 -3.077,6.033 -8.838,17.236 -9.153,19.023 -6.743,38.242 0.25,1.997 0.529,4.221 0.828,6.721 0.829,6.931 -2.782,13.185 -9.199,15.933 -2.314,0.991 -4.38,1.862 -6.236,2.644 -17.849,7.522 -19.239,8.688 -29.747,24.96 -1.092,1.691 -2.308,3.574 -3.686,5.681 -3.82,5.841 -10.605,8.311 -17.289,6.293 -2.41,-0.729 -4.552,-1.389 -6.475,-1.983 -18.507,-5.71 -20.322,-5.711 -38.833,0 -1.923,0.594 -4.065,1.254 -6.475,1.983 -6.68,2.019 -13.469,-0.451 -17.289,-6.293 -1.378,-2.107 -2.595,-3.991 -3.687,-5.682 -10.507,-16.271 -11.897,-17.438 -29.747,-24.959 -1.855,-0.782 -3.92,-1.652 -6.235,-2.644 -6.417,-2.748 -10.028,-9.002 -9.199,-15.934 0.299,-2.5 0.578,-4.725 0.829,-6.722 2.41,-19.219 2.095,-21.005 -6.744,-38.242 -0.918,-1.791 -1.941,-3.785 -3.077,-6.032 -3.149,-6.228 -1.895,-13.34 3.195,-18.117 z m 97.844,97.256 c 40.448,0 73.355,-32.907 73.355,-73.355 0,-40.448 -32.907,-73.354 -73.355,-73.354 -40.448,0 -73.354,32.907 -73.354,73.354 0,40.448 32.907,73.355 73.354,73.355 z m 0,-130.71 c 31.625,0 57.355,25.729 57.355,57.354 0,31.625 -25.729,57.355 -57.355,57.355 -31.626,0 -57.354,-25.729 -57.354,-57.355 0,-31.626 25.729,-57.354 57.354,-57.354 z m -20.365,85.703 -20.588,-20.589 c -3.125,-3.124 -3.124,-8.189 0,-11.313 3.125,-3.125 8.191,-3.124 11.313,0 l 15.199,15.2 44.362,-40.26 c 3.272,-2.97 8.331,-2.724 11.301,0.548 2.969,3.272 2.724,8.332 -0.548,11.301 l -50.006,45.381 c -1.529,1.387 -3.454,2.076 -5.375,2.076 -2.052,-0.001 -4.1,-0.786 -5.658,-2.344 z"
     id="path1"
     style="fill:#ffffff;fill-opacity:1" /></svg>
