<?xml version="1.0" encoding="UTF-8"?>
<svg id="Layer_2" data-name="Layer 2" xmlns="http://www.w3.org/2000/svg" viewBox="0 0 189.03 66.92">
  <g id="Layer_1-2" data-name="Layer 1">
    <g>
      <path d="M31.11,37.91c-9.83,10.25-26.35,3.42-30.09-9.13C-3,15.29,5.24,1.52,19.69.83c5.75-.28,11.8,2.05,15.2,6.79.29.4,1.48,2.08,1.27,2.47l-5.81,4.16c-1.63-2.85-4.06-4.9-7.27-5.75-11.81-3.11-17.92,10.46-13.68,20.04,3.47,7.84,12.86,9.41,19.28,3.96.31-.27,2.43-2.38,2.43-2.56v-2.7h-8.3v-5.95h15.08c-.06,5.88.08,11.77,0,17.64-.01,1.13-.44,2.39.13,3.52l-6.92.28v-4.84Z"/>
      <path d="M172.91,21.51c-.25-1.86-1.88-3.34-3.6-3.87-4.49-1.4-8.9.47-12.65,2.84l-2.51-4.83c-.07-.28,1.72-1.23,2.06-1.41,6.28-3.38,17.13-4.32,22.09,1.76,3.91,4.8,1.98,12.15,2.5,17.84.13,1.45.53,2.07,1.94,2.51l-.14,6.35c-2.32.36-4.87.84-6.79-.84-1.27-1.12-1.44-2.14-1.52-3.74-.01-.21.1-.4-.21-.34-1.59,2.04-3.92,3.7-6.36,4.57-7.83,2.77-17.46-2.51-14.78-11.45,2.28-7.6,13.71-8.37,19.96-5.98-.1-1.06.14-2.36,0-3.39ZM173.03,29.35c-3.47-1.26-8.3-2.06-11.45.34-2.39,1.82-2.21,5.27.36,6.81,2.97,1.78,7.45.94,9.72-1.61,1.51-1.7,1.68-3.33,1.38-5.54Z"/>
      <path d="M90.59,42.61c-3.99.89-8.95.23-8.44-4.98-.27-.07-.27.1-.39.23-3.61,3.97-6.82,5.63-12.39,5.14-9.8-.86-12.41-13.54-3.41-17.76,4.49-2.11,10.31-1.84,14.95-.34v-2.01c0-6.9-8.36-6.27-12.82-4.38-.54.23-3.58,1.95-3.77,1.81l-2.35-4.88c2.94-1.91,6.25-3.22,9.74-3.69,5.9-.78,12.81.31,15.66,6.19,2.51,5.19.73,10.83,1.3,16.13.16,1.48.65,1.78,1.92,2.37v6.16ZM80.89,29.35c-2.46-.8-5.18-1.49-7.78-1.11-7.92,1.17-6.59,9.96,1.22,9.25,1.98-.18,5.04-1.73,6.02-3.52.77-1.4.53-3.09.53-4.62Z"/>
      <path d="M103.46,12.04v18.06c-.1,7.89,7.97,8.21,11.87,2.74.18-.26,1.13-1.76,1.13-1.91V12.04h7.89c-.31,7.34-.06,14.71-.14,22.06.13,1.32.62,1.89,1.94,2.15v6.5l-3.25.29c-1.72-.17-3.26-.42-4.35-1.88-.26-.35-.83-1.54-.83-1.93v-2.14c-1.69,2.01-3.24,3.67-5.72,4.73-2.82,1.21-8.58,1.89-11.35.51-2.97-1.48-4.51-5.5-4.79-8.63l-.14-21.65h7.75Z"/>
      <path d="M51.72,0v33.55c0,.26.38,1.56.53,1.83,1.01,1.85,4.28.62,5.84.18l.96,5.75c-.03.44-1.94.93-2.39,1.04-6.17,1.58-12.96.72-12.82-7.14l.07-34.95,7.83-.27Z"/>
      <path d="M150.22,11.62v7.19c-3.29.01-7.2,1.08-9.34,3.73-.24.3-1.04,1.57-1.04,1.87v18.19h-7.75V12.04h7.06l.27,6.5c1.84-4.26,6.07-7.19,10.79-6.92Z"/>
      <path d="M56.29,63.91l1.24-2.71c.06-.63-.75-2.06-.99-2.73-.06-.16-.15-.31.1-.37.69-.16.98,1.85,1.38,2.21.25-.24.82-1.99.92-2.05.13-.08.37,0,.53-.02l-.97,2.84,1.18,2.7c.29.06.19-.12.27-.28.82-1.71,1.33-3.68,2.29-5.33l.55-.07-2.97,6.65c-.58,0-.83-1.23-1.06-1.72-.1-.21-.63-1.33-.74-1.33l-1.32,3.03c-.23.04-.43.02-.63-.12-.26-.19-2.41-5.3-2.63-5.96-.15-.46-.05-.44.4-.54l2.44,5.79Z"/>
      <path d="M25.99,60.32l.99-2.19.53-.02-1.21,3.09,1.28,2.72,2.49-5.67.41-.14.15.42-2.72,6.2c-.23.07-.42.04-.61-.12-.4-.36-.98-2.33-1.31-2.91l-1.39,3.04h-.46s-2.86-6.49-2.86-6.49c.19,0,.38-.04.55.07.3.18,1.98,4.92,2.35,5.6l1.25-2.83-1.11-2.77.34-.21c.53-.11,1.04,2.42,1.31,2.22Z"/>
      <path d="M97.1,58.24l.8.03c.66,1.19,1.28,2.44,2,3.61.12.2.33.65.59.65l2.35-4.15.9-.14v6.29c0,.26-.69.26-.69,0v-4.91l-2.57,3.87c-.55.13-2.02-3.42-2.69-3.73.12.26-.14.64-.14.76v4.22h-.55v-6.5Z"/>
      <path d="M155.34,65.09c-.23,1.64-2.13,2.23-3.5,1.57-.23-.11-1.57-1.08-.85-1.22.18-.04.97.84,1.41.94,1.69.39,2.65-.85,2.39-2.46-.26.2-.47.52-.78.67-1.09.54-2.36.19-2.96-.87-1.52-2.7,1.54-5.27,3.74-2.98v-.83s.55,0,.55,0c-.16,1.61.22,3.63,0,5.19ZM152.82,60.34c-2.23.25-1.94,4.34.51,3.98,2.23-.33,1.73-4.23-.51-3.98Z"/>
      <path d="M184.6.84c.31,0,.65-.09.9.14.3.26.93,2.02,1.18,2.49.36.07.21-.05.29-.2.23-.45.78-2.08,1.02-2.3.27-.24.82-.23,1.04.07v3.87c0,.26-.69.26-.69,0V1.94l-1.32,2.5-.54-.29-1.18-2.2v2.97l-.69.21V.84Z"/>
      <path d="M127.26,62.39v2.35h-.54s-.09-6.5-.09-6.5l2.08-.15c1.35.03,2.69.61,2.67,2.15,0,.6-.53,1.66-1.11,1.9-.1.04-.95.24-1,.24h-2.01ZM127.26,61.84c.96-.32,2.69.44,3.29-.79,1.08-2.22-1.69-2.76-3.29-2.25v3.04Z"/>
      <path d="M32.21,57.83v3.18l.64-.81c.63-.46,1.87-.63,2.41.04.08.1.41,1.03.41,1.11v3.18c0,.26-.69.26-.69,0v-3.32c0-.4-.76-.79-1.17-.77s-1.59.78-1.59,1.05v3.25l-.53-.02c-.32-.49-.02-.94-.01-1.43.04-1.82-.07-3.65,0-5.47h.55Z"/>
      <path d="M50.47,62.53h-4.29c.11,1.14.95,1.92,2.13,1.79.58-.06,1.02-.54,1.61-.54-.77,1.94-3.74,1.19-4.22-.69-1.01-3.96,4.86-4.61,4.78-.56ZM49.78,62.12c.06-2.44-3.51-2.38-3.6,0h3.6Z"/>
      <path d="M84.51,62.53h-4.15c-.11,1.16,1.02,1.94,2.11,1.77.46-.08.86-.44,1.29-.51.2-.04.4-.09.34.2-1.2,1.38-3.4,1.14-4.13-.57-1.7-3.93,4.6-5.27,4.55-.88ZM83.95,62.12c-.22-2.42-3.63-2.45-3.6,0h3.6Z"/>
      <path d="M37.33,62.53c.19,1.2,1.01,1.98,2.27,1.79.54-.08.99-.66,1.6-.54-.82,1.67-3.49,1.34-4.18-.32-1.48-3.58,3.31-4.96,4.32-2.25.12.33.38,1.11.06,1.32h-4.08ZM40.93,62.12c.15-1.71-2.06-2.4-3.12-1.25-.2.22-.71,1.25-.27,1.25h3.39Z"/>
      <path d="M68.18,62.53h-3.94l-.15.29c.24.95.93,1.57,1.95,1.52.59-.03.95-.4,1.42-.53.86-.24-.24.78-.71.95-1.81.64-3.41-.89-3.26-2.7.28-3.37,5.15-2.81,4.71.48ZM64.24,62.12h3.39c.16-1.68-2.07-2.41-3.12-1.25-.21.23-.65,1.16-.27,1.25Z"/>
      <path d="M111.07,62.53c0,1.04.98,1.87,1.99,1.79.5-.04.95-.46,1.41-.54.2-.04.4-.09.34.2-2.05,2.24-5.31-.17-3.99-2.88.88-1.8,3.57-1.78,4.27.11.12.33.38,1.11.06,1.32h-4.08ZM111.21,62.12h3.46c.06-2.44-3.47-2.38-3.46,0Z"/>
      <path d="M139.98,62.39l-4.14.15c0,1.12,1.02,1.91,2.13,1.79.6-.06.89-.42,1.33-.62.41-.18.53.16.13.54-2,1.87-5.32-.67-3.89-3.2,1.27-2.25,4.8-1.32,4.45,1.34ZM139.43,62.12c.05-2.48-3.52-2.38-3.6,0h3.6Z"/>
      <path d="M105.54,62.53c-.03,1.02.97,1.89,1.99,1.79.66-.06,1.22-.75,1.88-.48-2.09,2.57-5.71-.19-4.04-2.93,1.33-2.19,4.58-1.01,4.44,1.46-.11,0-.28.15-.33.15h-3.94ZM109.27,62.12c-.23-2.44-3.52-2.43-3.74,0h3.74Z"/>
      <path d="M157,62.53c.42,2.06,2.12,2.1,3.66,1.11.24.74-1.16,1.25-1.75,1.22-3.27-.18-3.19-5.11-.04-5.1,1.54,0,2.26,1.28,2.42,2.64-.22-.09-.52.14-.62.14h-3.67ZM160.74,62.12c-.42-2.23-3-2.52-3.72-.32l.19.32h3.53Z"/>
      <path d="M77.87,61.22c-.27-1.25-2.54-.94-2.76.42-.14.87.1,1.98-.03,2.88l-.67.23c.1-1.21-.14-2.63,0-3.81.03-.24.08-.4.28-.55-.61-.11-.12-.54.19-.47.29.07.09.67.43.54.68-.91,2.54-.97,3.01.17.04.1.24.95.24,1v2.91c0,.26-.69.26-.69,0,0-.84.15-2.63,0-3.32Z"/>
      <path d="M117.16,63.71c.18.85,1.85.92,2.15.07.66.56,2.32.93,2.84.08.68-1.11-1.59-1.18-2.21-1.54-.81-.48-.88-1.61-.14-2.2.73-.59,3.21-.45,2.9.89-.22.03-.08-.21-.31-.32-.85-.4-2.62-.72-2.5.7.43,1.15,3.57.3,2.88,2.54-.26.85-1.56,1.03-2.32.92-.48-.06-1.08-.48-1.31-.5s-.35.33-.67.39c-2.8.57-1.63-2.79-1.87-4.42l-.82-.22.83-.21v-1.66s.55,0,.55,0v1.66s1.11.07,1.11.07c.15.63-.75.25-1.11.35.14.98-.19,2.49,0,3.39Z"/>
      <path d="M88.78,60.2l.02.53c-.66-.41-2.88-.78-2.9.36-.03,1.34,3.05.47,3.05,2.34,0,1.5-1.84,1.63-2.95,1.28-.35-.11-1.03-.34-.73-.79,1.06.46,3.25.92,3.05-.83-.35-.73-2.97-.28-2.98-1.87-.02-1.7,2.35-1.63,3.44-1.02Z"/>
      <path d="M140.85,64.3c-.07-.12-.02-.26-.03-.39.18-.18,2.28,1.12,3.05-.06.91-1.39-2.33-.92-2.71-2.15-.73-2.31,2.71-2.27,3.15-1.35.08.17.1.34-.1.37-.38.05-2.68-1.2-2.57.48.08,1.31,3.01.51,2.93,2.21-.07,1.5-1.96,1.64-3.05,1.25-.1-.04-.64-.34-.66-.37Z"/>
      <path d="M93.36,60.73c-.73-.3-2.94-.86-2.9.49.03,1.06,3.1.55,3.05,2.2-.04,1.54-1.9,1.64-3.03,1.23-.42-.15-1.06-.85-.51-.87.39-.01,1.56,1.15,2.63.28,1.42-1.16-1.33-1.49-1.95-1.8-1.55-.77-.5-2.51,1.1-2.48.45,0,1.74.29,1.61.95Z"/>
      <path d="M69.98,57.83v5.88c0,.81,1.06.36,1.11,1.04-.49.06-1.8.08-1.8-.62v-6.29h.69Z"/>
      <polygon points="183.91 .84 183.91 1.39 182.53 1.39 182.53 4.92 181.83 5.13 181.7 1.39 180.17 1.39 180.17 .84 183.91 .84"/>
      <path d="M146.49,63.98c.17.62,1.52.06,1.52.69-3.05.91-1.85-2.44-2.07-4.26l-.84-.37.81-.16.02-1.64h.55s0,1.66,0,1.66l1.11.07c.15.63-.75.25-1.11.35v3.67Z"/>
      <path d="M72.33,57.83v5.33c0,.56.41,1.42,1.11,1.32.12.4-.36.31-.63.28-.36-.03-.54,0-.74-.37-.08-.14-.29-1.1-.29-1.23v-5.33h.55Z"/>
      <path d="M132.37,59.77h.55s0,1.25,0,1.25c.49-.57,1.05-1.56,1.93-.9-.41.22-1.93,1.2-1.93,1.66v2.97h-.55v-4.98Z"/>
      <path d="M42.73,59.9l.49.14.07.83c.54-.49,1.11-1.44,1.93-.76.07.3-.88.49-1.15.65-.28.16-.65.44-.79.74v3.25h-.55v-4.84Z"/>
      <polygon points="149.53 60.04 149.53 64.75 149.06 64.73 148.84 64.54 148.84 60.04 149.53 60.04"/>
      <path d="M149.51,57.99c.16.26,0,.95-.46.81-.62-.19.05-1.47.46-.81Z"/>
    </g>
  </g>
</svg>