<?xml version="1.0" encoding="UTF-8" standalone="no"?>
<svg
   id="Layer_1"
   enable-background="new 0 0 512 512"
   height="682.66669"
   viewBox="0 0 618.63544 682.66669"
   width="618.63544"
   version="1.1"
   xml:space="preserve"
   xmlns="http://www.w3.org/2000/svg"
   xmlns:svg="http://www.w3.org/2000/svg"><defs
     id="defs1" /><g
     id="g1"
     transform="matrix(1.3333333,0,0,1.3333333,1.9428998e-6,8.1592661e-6)"
     style="fill:#018e64;fill-opacity:1"><path
       d="m 231.99219,199.98828 c -26.80078,0 -48.60547,21.77734 -48.60547,48.54688 0,26.76953 21.80469,48.54687 48.60547,48.54687 26.80078,0 48.60547,-21.77734 48.60547,-48.54687 0,-26.76953 -21.80469,-48.54688 -48.60547,-48.54688 z m 0,82.10938 c -18.53125,0 -33.60547,-15.0586 -33.60547,-33.5625 0,-18.50782 15.07422,-33.56641 33.60547,-33.56641 18.53125,0 33.60547,15.05859 33.60547,33.56641 0,18.5039 -15.07422,33.5625 -33.60547,33.5625 z m 0,0"
       id="path1-9"
       style="fill:#018e64;fill-opacity:1" /><path
       d="m 320.46484,181.86328 -21.72265,-21.69531 c -2.64063,-2.63672 -6.82422,-2.9336 -9.8086,-0.69141 l -16.36328,12.28125 c -4.76953,-2.51953 -9.76172,-4.58203 -14.91797,-6.17187 l -2.875,-20.23828 c -0.52343,-3.69532 -3.6914,-6.44141 -7.42578,-6.44141 h -30.71875 c -3.73828,0 -6.90234,2.74609 -7.42968,6.44141 l -2.875,20.23828 c -5.15625,1.58984 -10.14454,3.65234 -14.91407,6.17187 l -16.36328,-12.28125 c -2.98828,-2.24219 -7.16797,-1.94531 -9.8125,0.69141 l -21.71875,21.69531 c -2.64062,2.64063 -2.9375,6.81641 -0.69531,9.79688 l 12.29687,16.34765 c -2.51953,4.76172 -4.58984,9.7461 -6.17968,14.89453 l -20.26563,2.875 c -3.69922,0.52344 -6.44531,3.6875 -6.44531,7.41797 V 263.875 c 0,3.73047 2.74609,6.89453 6.44531,7.41797 l 20.26563,2.875 c 1.58984,5.14844 3.65625,10.13281 6.17968,14.89453 l -12.29687,16.34766 c -2.24219,2.98047 -1.94531,7.15625 0.69531,9.79687 l 21.71875,21.69531 c 2.64453,2.63672 6.82422,2.92969 9.8125,0.69141 l 16.36328,-12.28125 c 4.76953,2.51562 9.75782,4.58203 14.91407,6.17187 l 2.875,20.23829 c 0.52734,3.69531 3.6914,6.4375 7.42968,6.4375 h 30.71875 c 3.73438,0 6.89844,-2.74219 7.42578,-6.4375 l 2.875,-20.23829 c 5.15625,-1.58984 10.14844,-3.65625 14.91797,-6.17187 l 16.36328,12.28125 c 2.98438,2.24219 7.16797,1.94531 9.8086,-0.69141 l 21.72265,-21.69531 c 2.64063,-2.64062 2.9336,-6.8164 0.69141,-9.79687 L 308.85938,289.0625 c 2.52343,-4.76172 4.58984,-9.74609 6.17968,-14.89453 l 20.26563,-2.875 c 3.69922,-0.52344 6.44922,-3.6875 6.44922,-7.41797 v -30.67969 c 0,-3.73047 -2.75,-6.89453 -6.44922,-7.41797 l -20.26563,-2.875 c -1.58984,-5.14843 -3.65625,-10.13281 -6.17968,-14.89453 l 12.29687,-16.34765 c 2.24219,-2.98047 1.94922,-7.15625 -0.69141,-9.79688 z m 6.28907,57.83203 v 17.67578 l -18.6836,2.65235 c -3.03515,0.42969 -5.5039,2.66015 -6.23437,5.63672 -1.73438,7.09375 -4.53906,13.85546 -8.33203,20.09375 -1.59375,2.61718 -1.42969,5.9375 0.41406,8.38671 l 11.33594,15.07032 -12.51563,12.49609 -15.08594,-11.32031 c -2.45312,-1.83985 -5.77734,-2.00781 -8.39843,-0.41406 -6.2461,3.78515 -13.01563,6.58593 -20.1211,8.32421 -2.97656,0.72657 -5.21093,3.19141 -5.64453,6.22266 l -2.64844,18.66016 h -17.69921 l -2.65235,-18.66016 c -0.42969,-3.03125 -2.66797,-5.49609 -5.64453,-6.22266 -7.10547,-1.73828 -13.87109,-4.53906 -20.11719,-8.32421 -2.62109,-1.59375 -5.94531,-1.42578 -8.39843,0.41406 l -15.08594,11.32031 -12.51563,-12.5 11.33594,-15.06641 c 1.83984,-2.44921 2.00391,-5.76953 0.41406,-8.38671 -3.79297,-6.23828 -6.59765,-13 -8.33593,-20.09766 -0.72657,-2.97266 -3.19532,-5.20703 -6.23047,-5.63672 l -18.6836,-2.64844 v -17.67578 l 18.6836,-2.64844 c 3.03515,-0.42968 5.5039,-2.66406 6.23047,-5.63671 1.73828,-7.09766 4.54296,-13.85547 8.33593,-20.09375 1.58985,-2.6211 1.42578,-5.94141 -0.41406,-8.38672 l -11.33594,-15.07032 12.51563,-12.5 15.08594,11.32422 c 2.45312,1.83594 5.77734,2.00391 8.39843,0.41407 6.2461,-3.78907 13.01172,-6.58985 20.11719,-8.32422 2.97656,-0.73047 5.21094,-3.19141 5.64453,-6.22657 l 2.65235,-18.66015 h 17.69921 l 2.64844,18.66015 c 0.4336,3.03125 2.66797,5.4961 5.64453,6.22657 7.10547,1.73437 13.875,4.53515 20.1211,8.32422 2.62109,1.58984 5.94531,1.42187 8.39843,-0.41407 l 15.08594,-11.32422 12.51563,12.5 -11.33594,15.07032 c -1.84375,2.44531 -2.00781,5.76953 -0.41406,8.38672 3.79297,6.23828 6.59375,12.99609 8.33203,20.08984 0.72656,2.97656 3.19531,5.21094 6.23047,5.64062 z m 0,0"
       id="path2"
       style="fill:#018e64;fill-opacity:1" /><path
       d="m 231.98828,58.914062 c 4.14453,0 7.5,-3.351562 7.5,-7.488281 V 7.492188 C 239.48828,3.351562 236.13281,0 231.98828,0 c -4.14062,0 -7.5,3.351562 -7.5,7.492188 v 43.933593 c 0,4.136719 3.35938,7.488281 7.5,7.488281 z m 0,0"
       id="path3"
       style="fill:#018e64;fill-opacity:1" /><path
       d="m 456.47656,224.21484 h -43.98828 c -4.14453,0 -7.5,3.35157 -7.5,7.48828 0,4.14063 3.35547,7.49219 7.5,7.49219 h 43.98828 c 4.14063,0 7.5,-3.35156 7.5,-7.49219 0,-4.13671 -3.35937,-7.48828 -7.5,-7.48828 z m 0,0"
       id="path4"
       style="fill:#018e64;fill-opacity:1" /><path
       d="M 51.488281,224.21484 H 7.5 c -4.140625,0 -7.5,3.35157 -7.5,7.48828 0,4.14063 3.359375,7.49219 7.5,7.49219 h 43.988281 c 4.140625,0 7.5,-3.35156 7.5,-7.49219 0,-4.13671 -3.355469,-7.48828 -7.5,-7.48828 z m 0,0"
       id="path5"
       style="fill:#018e64;fill-opacity:1" /><path
       d="m 99.050781,109.52344 c 2.890629,2.88672 7.718749,2.88672 10.605469,0 2.92969,-2.92578 2.92969,-7.66797 0,-10.593752 L 78.554688,67.863281 c -2.929688,-2.921875 -7.679688,-2.921875 -10.609376,0 -2.925781,2.925781 -2.925781,7.667969 0,10.597657 z m 0,0"
       id="path6"
       style="fill:#018e64;fill-opacity:1" /><path
       d="m 66.660156,158.96875 -15.199218,-5.94922 c -3.859376,-1.50781 -8.207032,0.39063 -9.71875,4.24219 -1.511719,3.85156 0.390624,8.19922 4.246093,9.70703 l 15.203125,5.94922 c 3.808594,1.48828 8.226563,-0.44141 9.71875,-4.24219 1.511719,-3.85547 -0.390625,-8.19922 -4.25,-9.70703 z m 0,0"
       id="path7"
       style="fill:#018e64;fill-opacity:1" /><path
       d="m 159.16016,66.582031 c 1.49218,3.800781 5.91015,5.730469 9.71875,4.242188 3.85546,-1.507813 5.75781,-5.855469 4.25,-9.707031 l -6.13282,-15.625 c -1.50781,-3.855469 -5.85937,-5.753907 -9.71875,-4.246094 -3.85547,1.511718 -5.75781,5.855468 -4.24609,9.707031 z m 0,0"
       id="path8"
       style="fill:#018e64;fill-opacity:1" /><path
       d="m 295.09375,70.824219 c 3.80859,1.488281 8.22656,-0.441407 9.71875,-4.242188 l 6.13281,-15.625 c 1.50781,-3.855469 -0.39062,-8.199219 -4.25,-9.710937 -3.85547,-1.503906 -8.20703,0.390625 -9.71875,4.242187 l -6.1289,15.628907 c -1.51172,3.851562 0.39062,8.195312 4.24609,9.707031 z m 0,0"
       id="path9"
       style="fill:#018e64;fill-opacity:1" /><path
       d="m 359.62109,111.71875 c 1.91797,0 3.83985,-0.73047 5.30469,-2.19531 l 31.10156,-31.062502 c 2.92969,-2.929688 2.92969,-7.671876 0,-10.597657 -2.92968,-2.921875 -7.67578,-2.921875 -10.60547,0 l -31.10546,31.066407 c -2.92969,2.925782 -2.92969,7.667972 0,10.593752 1.46484,1.46484 3.38672,2.19531 5.30468,2.19531 z m 0,0"
       id="path10"
       style="fill:#018e64;fill-opacity:1" /><path
       d="m 422.23437,157.26172 c -1.51171,-3.85547 -5.86328,-5.75 -9.71875,-4.24219 l -15.20312,5.94922 c -3.85547,1.50781 -5.75781,5.85156 -4.24609,9.70703 1.49218,3.80078 5.91015,5.73047 9.71875,4.24219 l 15.20312,-5.94922 c 3.85547,-1.50781 5.75781,-5.85547 4.24609,-9.70703 z m 0,0"
       id="path11"
       style="fill:#018e64;fill-opacity:1" /><path
       d="m 233.35937,77.152344 c -31.24609,-0.265625 -61.73828,8.632812 -88.12109,25.722656 -3.47656,2.25391 -4.46484,6.89063 -2.21094,10.36328 2.25,3.46875 6.89844,4.45703 10.3711,2.20703 23.57422,-15.26562 50.73047,-23.316404 78.6289,-23.316404 0.40235,0 0.8086,0 1.21094,0.0039 38.61719,0.324219 74.87109,15.585934 102.08594,42.984374 27.23047,27.41015 42.22656,63.77343 42.22656,102.39062 0,47.22656 -23.11328,91.6836 -61.83203,118.92578 -12.77344,8.98438 -21.125,22.75 -23.22266,37.80078 h -25.65625 c -4.14453,0 -7.5,3.35547 -7.5,7.49219 0,4.13672 3.35547,7.49219 7.5,7.49219 h 25.13672 v 38.41406 c 0,9.49219 -7.73437,17.21485 -17.23828,17.21485 h -85.49219 c -9.5039,0 -17.23828,-7.72266 -17.23828,-17.21485 v -38.41406 h 64.83203 c 4.14453,0 7.5,-3.35547 7.5,-7.49219 0,-4.13672 -3.35547,-7.49218 -7.5,-7.49218 h -65.36328 c -2.07031,-15.07032 -10.30078,-28.76172 -22.92187,-37.59766 -38.89844,-27.22656 -62.121096,-71.75781 -62.121096,-119.125 0,-39.44922 15.828126,-76.47656 44.574216,-104.26172 2.97656,-2.87891 3.05469,-7.62109 0.17188,-10.59375 -2.87891,-2.97266 -7.625,-3.05078 -10.60547,-0.17187 -31.687501,30.63281 -49.140626,71.48437 -49.140626,115.02734 0,52.24609 25.613281,101.36719 68.511716,131.39453 10.6836,7.47656 17.0625,19.74609 17.0625,32.82031 v 45.90625 c 0,15.57032 11.125,28.59375 25.85156,31.5586 8.14844,19.8125 27.3125,32.80859 49.13282,32.80859 21.82031,0 40.98437,-12.99609 49.1289,-32.80859 14.72657,-2.96485 25.85157,-15.98828 25.85157,-31.5586 v -45.88672 c 0,-0.008 0.004,-0.0117 0.004,-0.0195 0,-13.03515 6.4961,-25.38672 17.38281,-33.04687 42.69532,-30.04297 68.1875,-79.07813 68.1875,-131.16797 0,-42.59766 -16.53906,-82.70703 -46.57421,-112.94531 C 315.95312,94.347656 275.96094,77.507812 233.35937,77.152344 Z m -1.36718,419.867186 c -13.19141,0 -25.03125,-6.61328 -31.9336,-17.19141 h 63.86719 c -6.90234,10.57813 -18.74219,17.19141 -31.93359,17.19141 z m 0,0"
       id="path12"
       style="fill:#018e64;fill-opacity:1" /></g></svg>
