<?xml version="1.0" encoding="UTF-8"?>
<svg id="Layer_2" data-name="Layer 2" xmlns="http://www.w3.org/2000/svg" xmlns:xlink="http://www.w3.org/1999/xlink" viewBox="0 0 1026 406.34">
  <defs>
    <style>
      .cls-1 {
        fill: url(#linear-gradient-7);
      }

      .cls-2 {
        fill: url(#linear-gradient-5);
      }

      .cls-3 {
        fill: url(#linear-gradient-6);
      }

      .cls-4 {
        fill: url(#linear-gradient-4);
      }

      .cls-5 {
        fill: url(#linear-gradient-3);
      }

      .cls-6 {
        fill: url(#linear-gradient-2);
      }

      .cls-7 {
        fill: url(#radial-gradient);
      }

      .cls-8 {
        fill: url(#linear-gradient);
      }

      .cls-9 {
        fill: #292663;
      }

      .cls-10 {
        fill: #292662;
      }
    </style>
    <linearGradient id="linear-gradient" x1="-71.69" y1="110.16" x2="610.49" y2="264.44" gradientUnits="userSpaceOnUse">
      <stop offset=".03" stop-color="#282560"/>
      <stop offset=".26" stop-color="#5c52a1"/>
      <stop offset=".3" stop-color="#5c6aae"/>
      <stop offset=".38" stop-color="#5c8cc0"/>
      <stop offset=".46" stop-color="#5ca6ce"/>
      <stop offset=".54" stop-color="#5cb9d8"/>
      <stop offset=".63" stop-color="#5cc4de"/>
      <stop offset=".72" stop-color="#5dc8e0"/>
    </linearGradient>
    <linearGradient id="linear-gradient-2" x1="-72.02" y1="111.61" x2="610.17" y2="265.89" xlink:href="#linear-gradient"/>
    <linearGradient id="linear-gradient-3" x1="-64.72" y1="79.36" x2="617.46" y2="233.63" xlink:href="#linear-gradient"/>
    <linearGradient id="linear-gradient-4" x1="-50.68" y1="17.25" x2="631.51" y2="171.53" xlink:href="#linear-gradient"/>
    <linearGradient id="linear-gradient-5" x1="-47.83" y1="4.69" x2="634.35" y2="158.96" xlink:href="#linear-gradient"/>
    <linearGradient id="linear-gradient-6" x1="-46.65" y1="-.54" x2="635.53" y2="153.73" xlink:href="#linear-gradient"/>
    <radialGradient id="radial-gradient" cx="954.53" cy="102.51" fx="954.53" fy="102.51" r="57.95" gradientTransform="translate(596.86 -760.01) rotate(62.35)" gradientUnits="userSpaceOnUse">
      <stop offset=".17" stop-color="#292663"/>
      <stop offset=".35" stop-color="#4d458e"/>
      <stop offset=".45" stop-color="#5c52a1"/>
      <stop offset=".5" stop-color="#5c5ca6"/>
      <stop offset=".59" stop-color="#5c78b5"/>
      <stop offset=".71" stop-color="#5ca5cd"/>
      <stop offset=".79" stop-color="#5dc8e0"/>
    </radialGradient>
    <linearGradient id="linear-gradient-7" x1="-23.62" y1="349.64" x2="996.03" y2="150.78" gradientUnits="userSpaceOnUse">
      <stop offset="0" stop-color="#292663"/>
      <stop offset=".32" stop-color="#5c52a1"/>
      <stop offset=".36" stop-color="#5c6aae"/>
      <stop offset=".43" stop-color="#5c8cc0"/>
      <stop offset=".5" stop-color="#5ca6ce"/>
      <stop offset=".57" stop-color="#5cb9d8"/>
      <stop offset=".64" stop-color="#5cc4de"/>
      <stop offset=".72" stop-color="#5dc8e0"/>
    </linearGradient>
  </defs>
  <g id="Layer_1-2" data-name="Layer 1">
    <g>
      <g>
        <path class="cls-8" d="M222.17,314.97l-9.63,16.56c-2.7-11.55-24.64-25.41-36.96-32.73l-16.94-9.63c-10.78,3.85-22.33,5.78-34.65,5.78C55.83,294.94,0,228.72,0,147.47S55.83,0,123.99,0s124.37,66.23,124.37,147.47c0,49.29-20.41,92.8-51.21,119.36l5.01,3.08c20.02,11.55,29.26,23.1,20.02,45.05ZM120.14,267.22l-10.78-6.16c-21.18-11.94-22.33-41.97-10.01-58.53,5.39,11.55,17.71,18.48,26.95,23.87l35.81,20.41c22.33-21.95,37.73-59.68,38.89-102.42,1.92-65.84-30.8-117.82-73.16-116.28-42.74,1.93-78.55,56.6-80.47,122.83-1.92,65.46,30.42,117.44,72.77,116.28Z"/>
        <path class="cls-6" d="M388.15,272.39c-29.77,27.91-107.9,23.88-107.9-38.45v-64.49c-.31-11.78-.93-32.56-8.06-39.07,29.15-2.79,44.96,9.3,44.96,32.25v65.73c0,25.12,17.67,37.52,36.28,37.21,18.6-.31,29.46-8.37,29.46-22.95v-73.18c0-11.78-.93-32.56-8.06-39.07,29.15-2.79,45.27,9.3,45.27,32.25v83.41c0,11.47.62,32.87,7.75,39.38-19.22,1.86-32.87-2.79-39.69-13.02Z"/>
        <path class="cls-5" d="M457.6,146.81c17.98-28.22,117.83-31.32,117.83,28.22v71.32c0,11.78.93,32.56,8.06,39.07-18.29,1.86-31.63-2.48-38.76-11.47-25.11,11.47-47.75,18.6-73.18,11.47-13.64-3.72-23.88-15.81-26.66-28.53-7.13-35.66,14.88-51.16,31.01-57.67,22.63-8.99,39.69-10.54,53.64-15.5,7.75-2.48,8.99-4.03,8.68-11.16-1.24-13.95-13.33-22.02-35.97-22.02-24.81,0-35.35,20.77-29.46,31.94-21.39-6.82-22.94-23.88-15.19-35.66ZM538.22,198.28c-19.22,6.2-43.72,13.02-52.09,26.36-10.23,16.43-5.58,40.62,22.63,40.62,9.3,0,18.92-2.48,29.46-5.89v-61.08Z"/>
        <path class="cls-4" d="M640.85,85.42v161.24c0,11.78.62,32.56,7.75,39.07-28.84,2.79-44.96-9.3-44.96-32.25l.31-160.93c0-11.47-.93-32.87-8.06-39.38,29.15-2.79,44.96,9.3,44.96,32.25Z"/>
        <path class="cls-2" d="M706.89,162.63v83.72c0,11.78.62,32.56,7.75,39.07-28.84,2.79-44.96-9.61-44.96-32.25l.31-83.41c0-11.47-.93-32.87-8.06-39.38,29.15-3.1,44.96,9.3,44.96,32.25ZM710.3,82.01c0,12.4-9.92,22.33-22.32,22.33s-22.33-9.92-22.33-22.33,10.23-22.33,22.33-22.33,22.32,10.23,22.32,22.33Z"/>
        <path class="cls-3" d="M797.74,288.83c-31.01,0-52.4-13.33-52.4-56.12l-.31-81.55h-2.17c-6.2,0-18.29.62-21.7,4.65-1.55-16.12,4.96-25.12,17.67-25.12h6.2v-11.16c0-11.47-.62-32.87-7.75-39.69,29.15-2.79,44.96,9.61,44.96,32.25v18.6h31.32c6.51,0,17.98-.31,21.7-4.34,1.55,16.12-5.27,25.12-17.98,25.12h-35.04l.31,87.44c0,29.77,50.85,27.29,50.85.31,18.6,26.36-4.34,49.61-35.66,49.61Z"/>
      </g>
      <circle class="cls-7" cx="926.49" cy="113.24" r="23.58" transform="translate(396.25 881.38) rotate(-62.35)"/>
      <path class="cls-1" d="M1026,148.72c-19.17-2.33-55.97-3.62-88.89,17.31-11.76,7.48-18.22,14.39-20.13,16.59-22.42,25.68-21.1,57.89-20.66,65.61.88,15.62,5.4,28.76,10.35,38.78-6.05.58-11.53.5-16.43-.21-.17-.02-.33-.04-.5-.08-9.4-1.45-16.58-5.21-21.31-10.97-5.68-6.9-6.52-15.35-6.71-20.99-.97-29.02,4.55-59.76,8.24-84.79,1.68-11.42,4.48-29.16,3.7-51.49-.34-9.68-.53-15.99-2.66-24.44-3.96-15.73-11.49-27.31-17.03-34.36,6.53,3.68,24.92,15.17,35.97,38.85,10.97,23.49,8.08,44.8,6.74,52.19-.29,2.88-.58,5.76-.87,8.64.89-.5,1.78-.99,2.67-1.47,46.74-25.33,89.34-28.8,127.53-9.17Z"/>
      <g>
        <path class="cls-9" d="M93.49,382.35v9.46h13.6v3.33h-13.6v10.97h-3.88v-27.13h19.15v3.37h-15.27Z"/>
        <path class="cls-9" d="M147.48,402.73v3.37h-19.69v-27.13h19.15v3.37h-15.27v8.33h13.6v3.29h-13.6v8.76h15.81Z"/>
        <path class="cls-9" d="M187.01,402.73v3.37h-19.69v-27.13h19.15v3.37h-15.27v8.33h13.6v3.29h-13.6v8.76h15.81Z"/>
        <path class="cls-9" d="M206.86,378.97h3.88v23.76h14.69v3.37h-18.57v-27.13Z"/>
        <path class="cls-9" d="M289.41,394.42c.9,1.15,1.36,2.6,1.36,4.36,0,2.35-.88,4.16-2.66,5.43-1.77,1.27-4.35,1.9-7.73,1.9h-12.95v-27.13h12.17c3.1,0,5.5.62,7.19,1.86,1.69,1.24,2.54,2.96,2.54,5.16,0,1.42-.33,2.65-.99,3.68-.66,1.03-1.54,1.82-2.66,2.36,1.58.44,2.82,1.23,3.72,2.38ZM271.31,382.11v8.68h7.95c1.99,0,3.52-.37,4.59-1.11,1.07-.74,1.61-1.81,1.61-3.24s-.54-2.5-1.61-3.24c-1.07-.74-2.6-1.1-4.59-1.1h-7.95ZM285.19,401.88c1.11-.72,1.67-1.86,1.67-3.41,0-3.02-2.21-4.53-6.63-4.53h-8.92v9.03h8.92c2.2,0,3.85-.36,4.96-1.09Z"/>
        <path class="cls-9" d="M330.03,402.73v3.37h-19.69v-27.13h19.15v3.37h-15.27v8.33h13.6v3.29h-13.6v8.76h15.81Z"/>
        <path class="cls-9" d="M355.26,382.35h-9.3v-3.37h22.44v3.37h-9.3v23.76h-3.84v-23.76Z"/>
        <path class="cls-9" d="M391.96,382.35h-9.3v-3.37h22.44v3.37h-9.3v23.76h-3.84v-23.76Z"/>
        <path class="cls-9" d="M442.58,402.73v3.37h-19.69v-27.13h19.15v3.37h-15.27v8.33h13.6v3.29h-13.6v8.76h15.81Z"/>
        <path class="cls-9" d="M480.56,406.1l-5.85-8.33c-.72.05-1.29.08-1.71.08h-6.71v8.25h-3.88v-27.13h10.58c3.51,0,6.28.84,8.29,2.52,2.02,1.68,3.02,3.99,3.02,6.94,0,2.09-.52,3.88-1.55,5.35-1.03,1.47-2.51,2.55-4.42,3.22l6.43,9.11h-4.22ZM478.51,392.97c1.29-1.06,1.94-2.57,1.94-4.54s-.65-3.47-1.94-4.52c-1.29-1.05-3.17-1.57-5.62-1.57h-6.59v12.21h6.59c2.45,0,4.33-.53,5.62-1.59Z"/>
        <path class="cls-9" d="M502.65,405.58c-.52-.5-.78-1.14-.78-1.92s.26-1.38.78-1.88c.52-.5,1.14-.76,1.86-.76s1.33.25,1.82.74c.49.49.74,1.12.74,1.9s-.25,1.41-.76,1.92c-.5.5-1.11.76-1.8.76s-1.34-.25-1.86-.76Z"/>
        <path class="cls-9" d="M526.53,378.97h3.88v23.76h14.69v3.37h-18.57v-27.13Z"/>
        <path class="cls-9" d="M563.11,378.97h3.88v27.13h-3.88v-27.13Z"/>
        <path class="cls-9" d="M592.57,382.35v9.46h13.6v3.33h-13.6v10.97h-3.88v-27.13h19.15v3.37h-15.27Z"/>
        <path class="cls-9" d="M646.56,402.73v3.37h-19.69v-27.13h19.15v3.37h-15.27v8.33h13.6v3.29h-13.6v8.76h15.81Z"/>
        <path class="cls-9" d="M712.37,394.42c.9,1.15,1.36,2.6,1.36,4.36,0,2.35-.88,4.16-2.66,5.43-1.77,1.27-4.35,1.9-7.73,1.9h-12.95v-27.13h12.17c3.1,0,5.5.62,7.19,1.86,1.69,1.24,2.54,2.96,2.54,5.16,0,1.42-.33,2.65-.99,3.68-.66,1.03-1.54,1.82-2.66,2.36,1.58.44,2.82,1.23,3.72,2.38ZM694.27,382.11v8.68h7.95c1.99,0,3.52-.37,4.59-1.11,1.07-.74,1.61-1.81,1.61-3.24s-.54-2.5-1.61-3.24c-1.07-.74-2.6-1.1-4.59-1.1h-7.95ZM708.15,401.88c1.11-.72,1.67-1.86,1.67-3.41,0-3.02-2.21-4.53-6.63-4.53h-8.92v9.03h8.92c2.2,0,3.85-.36,4.96-1.09Z"/>
        <path class="cls-9" d="M752.99,402.73v3.37h-19.69v-27.13h19.15v3.37h-15.27v8.33h13.6v3.29h-13.6v8.76h15.81Z"/>
        <path class="cls-9" d="M778.22,382.35h-9.3v-3.37h22.44v3.37h-9.3v23.76h-3.84v-23.76Z"/>
        <path class="cls-9" d="M814.92,382.35h-9.3v-3.37h22.44v3.37h-9.3v23.76h-3.84v-23.76Z"/>
        <path class="cls-9" d="M865.54,402.73v3.37h-19.69v-27.13h19.15v3.37h-15.27v8.33h13.6v3.29h-13.6v8.76h15.81Z"/>
        <path class="cls-9" d="M903.52,406.1l-5.85-8.33c-.72.05-1.29.08-1.71.08h-6.71v8.25h-3.88v-27.13h10.58c3.51,0,6.28.84,8.29,2.52,2.02,1.68,3.02,3.99,3.02,6.94,0,2.09-.52,3.88-1.55,5.35-1.03,1.47-2.51,2.55-4.42,3.22l6.43,9.11h-4.22ZM901.47,392.97c1.29-1.06,1.94-2.57,1.94-4.54s-.65-3.47-1.94-4.52c-1.29-1.05-3.17-1.57-5.62-1.57h-6.59v12.21h6.59c2.45,0,4.33-.53,5.62-1.59Z"/>
      </g>
      <g>
        <path class="cls-10" d="M272.5,7.26h17.73v62.17h38.42v14.45h-56.15V7.26Z"/>
        <path class="cls-10" d="M359.94,7.26h17.73v76.62h-17.73V7.26Z"/>
        <path class="cls-10" d="M442.58,21.49v20.25h35.46v14.23h-35.46v27.91h-17.73V7.26h57.9v14.23h-40.17Z"/>
        <path class="cls-10" d="M568.45,69.65v14.23h-59.33V7.26h57.9v14.23h-40.28v16.64h35.57v13.79h-35.57v17.73h41.7Z"/>
      </g>
    </g>
  </g>
</svg>