<?xml version="1.0" encoding="UTF-8"?>
<svg id="Layer_2" data-name="Layer 2" xmlns="http://www.w3.org/2000/svg" viewBox="0 0 277.64 289.19">
  <defs>
    <style>
      .cls-1 {
        fill: #9dd18f;
      }

      .cls-2 {
        fill: #41b9eb;
      }
    </style>
  </defs>
  <g id="Layer_1-2" data-name="Layer 1">
    <g>
      <path class="cls-2" d="M168.45,33.91v20.92l-31.73-31.73c-2.89-2.89-7.57-2.89-10.48,0l-36.65,36.65c-.54.54-1.11.98-1.78,1.32-2.15,1.15-4.74,1.15-6.9,0-.65-.33-1.24-.78-1.78-1.32L42.48,23.1c-2.89-2.89-7.59-2.89-10.48,0L0,55.11v-20.94L32.01,2.17c2.89-2.89,7.59-2.89,10.48,0l36.65,36.65c2.89,2.89,7.57,2.89,10.46,0L126.25,2.17c2.91-2.89,7.59-2.89,10.48,0l31.73,31.75Z"/>
      <path class="cls-1" d="M141.96,41.43l-52.37,52.37c-2.89,2.89-7.57,2.89-10.46,0l-36.65-36.65c-2.89-2.89-7.59-2.89-10.48,0L0,89.15v-20.94l32.01-32.01c.54-.54,1.13-.98,1.78-1.31,2.17-1.15,4.76-1.15,6.92,0,.65.33,1.24.78,1.78,1.31l36.65,36.63c2.89,2.91,7.57,2.91,10.46,0l41.89-41.87,10.48,10.46Z"/>
      <polygon points="1.9 162.93 1.9 118.5 8.88 118.5 30.9 151.57 30.9 118.5 37.88 118.5 37.88 162.93 30.9 162.93 8.88 129.93 8.88 162.93 1.9 162.93"/>
      <path d="M56.1,163.69c-3.51,0-6.33-1.2-8.44-3.59-2.12-2.39-3.17-5.93-3.17-10.63v-18.02h6.98v17.33c0,2.96.58,5.2,1.75,6.69,1.16,1.5,2.8,2.25,4.92,2.25,2.45,0,4.38-.87,5.77-2.6,1.39-1.74,2.09-4.21,2.09-7.43v-16.25h6.98v31.48h-6.98v-4.89c-.93,1.78-2.23,3.16-3.9,4.16-1.67.99-3.67,1.49-6,1.49"/>
      <path d="M90.88,162.93c-1.95,0-3.6-.23-4.95-.7-1.35-.46-2.37-1.35-3.05-2.67-.68-1.31-1.01-3.21-1.01-5.71v-16.5h-5.4v-5.9h5.4v-8.06h6.98v8.06h8.44v5.9h-8.44v15.55c0,1.23.11,2.12.35,2.7.23.57.66.94,1.27,1.11.61.17,1.51.25,2.7.25h3.81v5.97h-6.09Z"/>
      <path d="M101.66,162.93v-31.48h6.98v4.89c.76-1.61,1.78-2.86,3.05-3.77,1.27-.91,2.75-1.36,4.44-1.36h4.38v6.28h-5.08c-1.44,0-2.66.39-3.68,1.17-1.02.78-1.79,2-2.32,3.65s-.8,3.74-.8,6.28v14.34h-6.98Z"/>
      <path d="M134.85,163.69c-2.45,0-4.54-.44-6.25-1.3-1.71-.87-3-2.02-3.87-3.46-.87-1.44-1.3-3.01-1.3-4.7,0-3.34,1.21-5.92,3.62-7.74,2.41-1.82,5.58-2.73,9.52-2.73,1.78,0,3.36.14,4.76.41,1.4.28,2.54.56,3.43.86v-1.46c0-2.45-.67-4.27-2-5.46-1.33-1.18-3.1-1.78-5.3-1.78-1.65,0-3.11.34-4.38,1.02-1.27.68-2.07,1.86-2.41,3.55h-6.73c.26-2.28,1.02-4.18,2.32-5.68,1.29-1.5,2.91-2.63,4.86-3.39,1.94-.76,4.06-1.14,6.34-1.14,4.57,0,8.09,1.14,10.57,3.43,2.48,2.29,3.71,5.44,3.71,9.46v8.25c0,1.61.1,2.77.29,3.49.19.72.51,1.18.95,1.37.45.19,1.05.29,1.81.29h.32v5.97h-1.52c-2.12,0-3.88-.32-5.3-.95-1.42-.64-2.4-1.9-2.95-3.81-1.02,1.57-2.39,2.88-4.13,3.93-1.74,1.06-3.85,1.59-6.35,1.59M136.25,158.23c1.61,0,2.98-.39,4.12-1.17,1.14-.78,2.06-1.82,2.76-3.11.7-1.29,1.13-2.68,1.3-4.16-.93-.26-2.03-.51-3.3-.76-1.27-.26-2.56-.38-3.87-.38-2.24,0-3.93.47-5.08,1.4-1.14.93-1.71,2.16-1.71,3.68,0,1.31.51,2.39,1.52,3.24,1.01.85,2.43,1.27,4.25,1.27"/>
      <polygon points="1.78 219.08 1.78 174.65 10.09 174.65 26.72 213.11 23.61 213.43 40.17 174.65 48.42 174.65 48.42 219.08 41.44 219.08 41.44 180.74 43.85 182.01 27.86 219.08 22.4 219.08 6.34 182.01 8.76 180.74 8.76 219.08 1.78 219.08"/>
      <path d="M69.93,219.84c-3.13,0-5.89-.69-8.28-2.06-2.39-1.37-4.27-3.29-5.65-5.74-1.37-2.45-2.06-5.31-2.06-8.57s.68-6.15,2.03-8.66c1.35-2.52,3.23-4.48,5.65-5.87,2.41-1.4,5.2-2.09,8.38-2.09s5.79.68,8.09,2.03c2.31,1.36,4.09,3.17,5.36,5.46,1.27,2.28,1.9,4.85,1.9,7.68v1.37c0,.49-.04,1.03-.13,1.62h-26.15v-4.69h19.29c-.13-2.37-.98-4.25-2.57-5.65-1.59-1.4-3.52-2.09-5.81-2.09-1.65,0-3.17.37-4.57,1.11-1.4.74-2.52,1.82-3.36,3.24-.85,1.42-1.27,3.23-1.27,5.42v1.78c0,2.12.42,3.93,1.27,5.43.85,1.5,1.96,2.63,3.33,3.4,1.37.76,2.89,1.14,4.54,1.14,1.86,0,3.43-.42,4.7-1.27,1.27-.85,2.2-1.99,2.79-3.42h7.05c-.55,1.99-1.49,3.77-2.82,5.36-1.34,1.59-2.98,2.83-4.95,3.74-1.97.91-4.22,1.36-6.76,1.36"/>
      <path d="M104.77,219.84c-3,0-5.68-.72-8.03-2.16-2.35-1.44-4.19-3.42-5.52-5.93-1.33-2.52-2-5.34-2-8.48s.67-6,2-8.47c1.33-2.47,3.17-4.42,5.52-5.84,2.35-1.42,5.04-2.13,8.09-2.13,2.45,0,4.61.49,6.47,1.46,1.86.97,3.32,2.3,4.38,4v-18.91h6.98v45.69h-6.98v-4.82c-.97,1.44-2.35,2.73-4.12,3.87-1.78,1.14-4.04,1.71-6.79,1.71M106.04,213.75c1.9,0,3.59-.44,5.04-1.33,1.46-.89,2.6-2.12,3.43-3.68.83-1.56,1.24-3.36,1.24-5.39s-.41-3.89-1.24-5.46c-.83-1.57-1.97-2.78-3.43-3.65-1.46-.87-3.14-1.3-5.04-1.3s-3.52.43-4.98,1.3c-1.46.87-2.61,2.08-3.46,3.65-.85,1.57-1.27,3.36-1.27,5.39s.42,3.89,1.27,5.46c.85,1.57,2,2.79,3.46,3.68,1.46.89,3.12,1.33,4.98,1.33"/>
      <path d="M128.83,174.46h7.42v7.55h-7.42v-7.55ZM129.01,187.6h6.98v31.48h-6.98v-31.48Z"/>
      <path d="M157.06,219.84c-3.13,0-5.91-.7-8.35-2.1-2.43-1.39-4.34-3.33-5.74-5.81-1.4-2.48-2.1-5.34-2.1-8.6s.7-6.12,2.1-8.6c1.4-2.48,3.31-4.41,5.74-5.81,2.43-1.4,5.22-2.09,8.35-2.09,3.89,0,7.17,1.02,9.84,3.05,2.66,2.03,4.36,4.8,5.08,8.32h-7.23c-.42-1.69-1.33-3.02-2.73-3.97-1.4-.95-3.07-1.43-5.01-1.43-1.57,0-3.04.41-4.41,1.24-1.37.82-2.47,2.01-3.3,3.55-.83,1.54-1.24,3.46-1.24,5.74s.41,4.16,1.24,5.74c.82,1.59,1.92,2.78,3.3,3.59,1.38.8,2.85,1.21,4.41,1.21,1.95,0,3.62-.47,5.01-1.39,1.4-.93,2.31-2.27,2.73-4h7.23c-.68,3.38-2.36,6.12-5.04,8.22-2.69,2.1-5.98,3.14-9.87,3.14"/>
      <path d="M186.64,219.84c-2.46,0-4.54-.44-6.25-1.3-1.71-.87-3-2.02-3.87-3.46-.87-1.44-1.3-3.01-1.3-4.7,0-3.34,1.21-5.92,3.62-7.74,2.41-1.82,5.58-2.73,9.52-2.73,1.78,0,3.36.14,4.76.41,1.4.28,2.54.56,3.43.86v-1.46c0-2.45-.67-4.27-2-5.46-1.33-1.18-3.1-1.78-5.3-1.78-1.65,0-3.11.34-4.38,1.02-1.27.68-2.07,1.86-2.41,3.55h-6.73c.26-2.28,1.02-4.18,2.32-5.68,1.29-1.5,2.91-2.63,4.85-3.39,1.94-.76,4.06-1.14,6.34-1.14,4.57,0,8.09,1.14,10.57,3.43,2.47,2.29,3.71,5.44,3.71,9.46v8.25c0,1.61.1,2.77.29,3.49.19.72.51,1.18.95,1.37.44.19,1.05.29,1.81.29h.32v5.97h-1.52c-2.12,0-3.88-.32-5.3-.95-1.42-.64-2.4-1.9-2.95-3.81-1.02,1.57-2.39,2.88-4.13,3.93-1.74,1.06-3.85,1.59-6.35,1.59M188.04,214.38c1.61,0,2.98-.39,4.12-1.17,1.14-.78,2.06-1.82,2.76-3.11.7-1.29,1.13-2.68,1.3-4.16-.93-.26-2.03-.51-3.3-.76-1.27-.26-2.56-.38-3.87-.38-2.24,0-3.93.47-5.08,1.4-1.14.93-1.71,2.16-1.71,3.68,0,1.31.51,2.39,1.52,3.24,1.01.85,2.43,1.27,4.25,1.27"/>
      <rect x="211.51" y="173.38" width="6.98" height="45.69"/>
      <path d="M21.39,275.99c-4.4,0-8.21-.96-11.42-2.89-3.22-1.93-5.68-4.61-7.39-8.06C.86,261.59,0,257.6,0,253.08s.85-8.58,2.57-12.03c1.71-3.45,4.18-6.14,7.39-8.09,3.21-1.94,7.02-2.92,11.42-2.92,5.24,0,9.52,1.28,12.82,3.84,3.3,2.56,5.39,6.14,6.28,10.75h-7.74c-.55-2.58-1.79-4.61-3.71-6.09-1.92-1.48-4.49-2.22-7.71-2.22-2.92,0-5.44.67-7.55,2-2.12,1.33-3.76,3.26-4.92,5.77-1.17,2.52-1.75,5.51-1.75,8.98s.58,6.44,1.75,8.92c1.16,2.48,2.8,4.39,4.92,5.74,2.11,1.35,4.63,2.03,7.55,2.03,3.22,0,5.77-.72,7.68-2.16,1.9-1.44,3.17-3.49,3.81-6.15h7.74c-.89,4.61-2.99,8.19-6.32,10.72-3.32,2.54-7.61,3.81-12.85,3.81"/>
      <path d="M60.22,275.99c-3.13,0-5.94-.69-8.44-2.06-2.5-1.37-4.47-3.31-5.93-5.8-1.46-2.5-2.19-5.37-2.19-8.63s.73-6.19,2.19-8.66c1.46-2.47,3.45-4.4,5.96-5.77,2.52-1.38,5.32-2.07,8.41-2.07s6,.69,8.47,2.07c2.48,1.37,4.44,3.3,5.9,5.77,1.46,2.48,2.19,5.36,2.19,8.66s-.73,6.13-2.19,8.63c-1.46,2.49-3.44,4.43-5.93,5.8-2.5,1.38-5.31,2.06-8.44,2.06M60.22,269.96c1.69,0,3.25-.39,4.67-1.17,1.41-.78,2.55-1.95,3.39-3.49.84-1.55,1.27-3.48,1.27-5.81s-.42-4.26-1.27-5.81c-.85-1.54-1.98-2.71-3.39-3.49-1.42-.78-2.95-1.18-4.6-1.18s-3.25.39-4.66,1.18c-1.42.78-2.56,1.95-3.43,3.49-.87,1.54-1.3,3.48-1.3,5.81s.42,4.26,1.27,5.81c.84,1.54,1.98,2.71,3.39,3.49,1.42.78,2.97,1.17,4.66,1.17"/>
      <path d="M81.74,275.23v-31.48h6.98v4.13c1.02-1.52,2.36-2.72,4.03-3.58,1.67-.87,3.54-1.3,5.62-1.3,2.46,0,4.56.49,6.32,1.46,1.76.97,3.12,2.43,4.09,4.38,1.14-1.82,2.68-3.25,4.6-4.28,1.92-1.04,4.03-1.56,6.31-1.56,3.93,0,7.01,1.2,9.23,3.59,2.22,2.39,3.33,5.93,3.33,10.63v18.02h-6.92v-17.32c0-2.96-.58-5.19-1.74-6.7-1.16-1.5-2.89-2.25-5.17-2.25s-4.22.87-5.68,2.6c-1.46,1.74-2.19,4.21-2.19,7.43v16.25h-6.98v-17.32c0-2.96-.59-5.19-1.78-6.7-1.18-1.5-2.92-2.25-5.2-2.25s-4.17.87-5.65,2.6c-1.48,1.74-2.22,4.21-2.22,7.43v16.25h-6.98Z"/>
      <path d="M138.66,289.19v-45.44h6.98v4.82c1.02-1.48,2.41-2.78,4.19-3.9,1.78-1.12,4.02-1.68,6.73-1.68,3.04,0,5.73.72,8.06,2.16,2.33,1.44,4.16,3.41,5.49,5.9,1.34,2.5,2,5.33,2,8.51s-.67,5.95-2,8.44c-1.33,2.5-3.16,4.45-5.49,5.87-2.33,1.42-5.01,2.13-8.06,2.13-2.46,0-4.61-.49-6.47-1.46-1.86-.97-3.35-2.3-4.44-4v18.66h-6.98ZM155.29,269.9c1.9,0,3.58-.44,5.04-1.33,1.46-.89,2.6-2.11,3.43-3.65.83-1.54,1.24-3.33,1.24-5.36s-.41-3.9-1.24-5.49c-.83-1.59-1.97-2.82-3.43-3.68-1.46-.87-3.14-1.3-5.04-1.3s-3.59.43-5.05,1.3c-1.46.87-2.6,2.08-3.42,3.65-.83,1.57-1.24,3.39-1.24,5.46s.41,3.88,1.24,5.43c.82,1.54,1.97,2.76,3.42,3.65,1.46.89,3.14,1.33,5.05,1.33"/>
      <path d="M186.7,275.99c-2.46,0-4.54-.44-6.25-1.3-1.71-.87-3-2.02-3.87-3.46-.87-1.44-1.3-3.01-1.3-4.7,0-3.34,1.21-5.92,3.62-7.74,2.41-1.82,5.58-2.73,9.52-2.73,1.78,0,3.36.14,4.76.41,1.4.28,2.54.56,3.43.86v-1.46c0-2.45-.67-4.27-2-5.46-1.33-1.18-3.1-1.78-5.3-1.78-1.65,0-3.11.34-4.38,1.02-1.27.68-2.07,1.86-2.41,3.55h-6.73c.25-2.28,1.02-4.18,2.32-5.68,1.29-1.5,2.91-2.63,4.85-3.39,1.95-.76,4.06-1.14,6.35-1.14,4.57,0,8.09,1.14,10.57,3.43,2.47,2.29,3.71,5.44,3.71,9.46v8.25c0,1.61.1,2.77.29,3.49.19.72.51,1.18.95,1.37.44.19,1.05.29,1.81.29h.32v5.97h-1.52c-2.12,0-3.88-.32-5.3-.95-1.42-.64-2.4-1.9-2.95-3.81-1.02,1.57-2.39,2.88-4.13,3.93-1.73,1.06-3.85,1.59-6.35,1.59M188.1,270.53c1.61,0,2.98-.39,4.12-1.17,1.14-.78,2.06-1.82,2.76-3.11.7-1.29,1.13-2.68,1.3-4.16-.93-.26-2.03-.51-3.3-.76-1.27-.26-2.56-.38-3.87-.38-2.24,0-3.93.47-5.08,1.4-1.14.93-1.71,2.16-1.71,3.68,0,1.31.51,2.39,1.52,3.24,1.02.85,2.43,1.27,4.25,1.27"/>
      <path d="M211.52,275.23v-31.48h6.98v5.02c1.06-1.78,2.5-3.18,4.32-4.22,1.82-1.04,3.89-1.56,6.22-1.56,3.85,0,6.85,1.2,9.01,3.59,2.16,2.39,3.24,5.93,3.24,10.63v18.02h-6.98v-17.32c0-2.96-.6-5.19-1.81-6.7-1.2-1.5-3.04-2.25-5.49-2.25s-4.48.87-6.09,2.6c-1.61,1.74-2.41,4.21-2.41,7.43v16.25h-6.98Z"/>
      <path d="M243.76,289.19v-5.65h6.54c.63,0,1.15-.09,1.55-.25.4-.17.8-.53,1.21-1.08.4-.55.83-1.42,1.3-2.6l3.17-6.85-.51,3.3-13.77-32.3h7.61l9.46,23.1,9.96-23.1h7.36l-16.94,38.01c-.72,1.65-1.34,2.96-1.87,3.93-.53.97-1.04,1.71-1.52,2.22-.49.51-1.07.85-1.75,1.02-.68.17-1.52.25-2.54.25h-9.27Z"/>
    </g>
  </g>
</svg>