<?xml version="1.0" encoding="UTF-8"?>
<svg id="Layer_2" data-name="Layer 2" xmlns="http://www.w3.org/2000/svg" viewBox="0 0 144.58 76.71">
  <defs>
    <style>
      .cls-1 {
        fill: #005aa0;
      }
    </style>
  </defs>
  <g id="Layer_1-2" data-name="Layer 1">
    <g>
      <g>
        <g>
          <path class="cls-1" d="M5.31,67.43l-1.11,1.22c-.25-.32-.75-.49-1.18-.49-.54,0-1.09.26-1.09.76,0,.18.05.32.19.44.13.13.2.2.45.28.24.09.29.13.62.21.16.05.27.08.33.1.51.16.84.31,1.23.6.38.3.57.79.57,1.43,0,.79-.27,1.39-.81,1.8-.54.42-1.22.63-2.03.63-.99,0-1.82-.31-2.48-.93l1.16-1.27c.36.47.84.7,1.41.7.28,0,.53-.06.77-.2.24-.13.35-.31.35-.57,0-.32-.21-.51-.48-.69-.11-.06-.41-.16-.52-.2-.12-.04-.49-.16-.6-.2-.54-.18-.85-.32-1.25-.62-.4-.29-.6-.76-.6-1.37,0-.75.28-1.33.83-1.76.55-.43,1.21-.63,1.98-.63.91,0,1.66.26,2.26.77Z"/>
          <path class="cls-1" d="M7.89,66.35v3.5h.02c.18-.49.76-.81,1.41-.81,1.33,0,1.87.72,1.87,2.34v2.84h-1.56v-2.57c0-.91-.26-1.24-.81-1.24-.62,0-.94.42-.94,1.24v2.57h-1.56v-7.86h1.56Z"/>
          <path class="cls-1" d="M12.96,69.76c.53-.49,1.22-.73,2.04-.73.98,0,2.33.59,2.33,2.71v.44h-3.62c.12.59.55.98,1.18.98.43,0,.8-.21,1.11-.61l1.09.8c-.49.63-1.33,1-2.13,1s-1.45-.24-1.99-.73c-.55-.49-.82-1.12-.82-1.92s.27-1.44.81-1.92ZM15.77,71.11c0-.57-.42-.96-.97-.96-.59,0-1.04.37-1.09.96h2.06Z"/>
          <path class="cls-1" d="M22.02,66.35h1.56v7.86h-1.43v-.67h-.02c-.33.49-.97.79-1.56.79-.75,0-1.35-.25-1.8-.74-.45-.49-.68-1.11-.68-1.87,0-.72.21-1.35.64-1.89.42-.53.98-.8,1.68-.8.74,0,1.28.22,1.6.67h.02v-3.35ZM20.9,72.96c.76,0,1.25-.5,1.25-1.28s-.51-1.28-1.26-1.28-1.24.5-1.24,1.28.49,1.28,1.25,1.28Z"/>
          <path class="cls-1" d="M26.28,66.92c.35.35.35.93,0,1.28-.52.59-1.59.12-1.55-.64,0-.26.09-.47.27-.65.35-.34.93-.35,1.28,0ZM26.42,69.16v5.06h-1.56v-5.06h1.56Z"/>
          <path class="cls-1" d="M32.44,66.85v2.75h3.15v-2.75h1.62v7.37h-1.62v-3.18h-3.15v3.18h-1.62v-7.37h1.62Z"/>
          <path class="cls-1" d="M39.18,69.76c.53-.49,1.22-.73,2.04-.73.98,0,2.33.59,2.33,2.71v.44h-3.62c.12.59.55.98,1.18.98.43,0,.8-.21,1.11-.61l1.09.8c-.49.63-1.33,1-2.13,1s-1.45-.24-1.99-.73c-.55-.49-.82-1.12-.82-1.92s.27-1.44.81-1.92ZM41.99,71.11c0-.57-.42-.96-.97-.96-.59,0-1.04.37-1.09.96h2.06Z"/>
          <path class="cls-1" d="M49.11,71.57v2.64h-1.43v-.64h-.02c-.32.51-.85.76-1.6.76-.5,0-.93-.14-1.27-.42-.35-.28-.53-.66-.53-1.14s.2-.88.46-1.14c.25-.24.75-.42,1.09-.5.31-.07,1.02-.14,1.29-.15h.58c0-.55-.46-.91-1-.91-.49,0-.9.2-1.27.6l-.83-.85c.56-.54,1.3-.81,2.23-.81,1.7,0,2.31.79,2.31,2.54ZM46.49,73.28c.63,0,1.18-.34,1.18-.96v-.32h-.47c-.97,0-1.46.24-1.46.73,0,.36.36.55.75.55Z"/>
          <path class="cls-1" d="M51.67,66.35v7.86h-1.56v-7.86h1.56Z"/>
          <path class="cls-1" d="M54.86,67.66v1.5h1.37v1.25h-1.37v1.78c0,.61.21.84.74.84.32,0,.54-.05.63-.15v1.3c-.3.1-.66.16-1.09.16-1.2,0-1.84-.56-1.84-1.49v-2.44h-1v-1.25h1v-1.5h1.56Z"/>
          <path class="cls-1" d="M58.59,66.35v3.5h.02c.18-.49.76-.81,1.41-.81,1.33,0,1.87.72,1.87,2.34v2.84h-1.56v-2.57c0-.91-.26-1.24-.81-1.24-.62,0-.94.42-.94,1.24v2.57h-1.56v-7.86h1.56Z"/>
          <path class="cls-1" d="M68.74,66.85l1.69,4.81h.02l1.71-4.81h2.44v7.37h-1.62v-5.65h-.02l-1.93,5.65h-1.24l-1.86-5.65h-.02v5.65h-1.62v-7.37h2.46Z"/>
          <path class="cls-1" d="M76.57,69.76c.53-.49,1.22-.73,2.04-.73.98,0,2.33.59,2.33,2.71v.44h-3.62c.13.59.55.98,1.18.98.43,0,.8-.21,1.11-.61l1.09.8c-.49.63-1.33,1-2.13,1s-1.45-.24-1.99-.73c-.55-.49-.82-1.12-.82-1.92s.27-1.44.81-1.92ZM79.37,71.11c0-.57-.42-.96-.97-.96-.59,0-1.04.37-1.09.96h2.06Z"/>
          <path class="cls-1" d="M85.63,66.35h1.56v7.86h-1.43v-.67h-.02c-.33.49-.97.79-1.56.79-.75,0-1.35-.25-1.8-.74-.45-.49-.68-1.11-.68-1.87,0-.72.21-1.35.64-1.89.42-.53.98-.8,1.67-.8.74,0,1.28.22,1.6.67h.02v-3.35ZM84.51,72.96c.76,0,1.25-.5,1.25-1.28s-.51-1.28-1.26-1.28-1.24.5-1.24,1.28.49,1.28,1.25,1.28Z"/>
          <path class="cls-1" d="M89.89,66.92c.35.35.35.93,0,1.28-.52.59-1.59.12-1.55-.64,0-.26.09-.47.27-.65.35-.34.93-.35,1.28,0ZM90.02,69.16v5.06h-1.56v-5.06h1.56Z"/>
          <path class="cls-1" d="M95.6,69.71l-1.03,1.08c-.19-.26-.45-.38-.77-.38-.76,0-1.25.52-1.25,1.28s.5,1.28,1.25,1.28c.3,0,.56-.13.77-.38l1.03,1.08c-.45.45-1.04.68-1.8.68-.8,0-1.47-.25-2-.74-.54-.49-.81-1.12-.81-1.91s.27-1.44.81-1.92c.53-.49,1.2-.73,2-.73s1.37.23,1.8.68Z"/>
          <path class="cls-1" d="M100.78,71.57v2.64h-1.44v-.64h-.02c-.32.51-.85.76-1.6.76-.5,0-.93-.14-1.27-.42-.35-.28-.53-.66-.53-1.14s.2-.88.46-1.14c.25-.24.75-.42,1.09-.5.31-.07,1.02-.14,1.29-.15h.58c0-.55-.46-.91-1-.91-.49,0-.9.2-1.27.6l-.83-.85c.56-.54,1.3-.81,2.23-.81,1.69,0,2.31.79,2.31,2.54ZM98.16,73.28c.64,0,1.18-.34,1.18-.96v-.32h-.47c-.97,0-1.46.24-1.46.73,0,.36.36.55.75.55Z"/>
          <path class="cls-1" d="M103.34,66.35v7.86h-1.56v-7.86h1.56Z"/>
          <path class="cls-1" d="M112.74,66.85v1.5h-3.32v1.5h3.07v1.5h-3.07v2.87h-1.62v-7.37h4.94Z"/>
          <path class="cls-1" d="M118.33,71.57v2.64h-1.44v-.64h-.02c-.32.51-.85.76-1.6.76-.5,0-.93-.14-1.27-.42-.35-.28-.53-.66-.53-1.14s.2-.88.46-1.14c.25-.24.75-.42,1.09-.5.31-.07,1.02-.14,1.29-.15h.58c0-.55-.46-.91-1-.91-.49,0-.9.2-1.27.6l-.83-.85c.56-.54,1.3-.81,2.23-.81,1.69,0,2.31.79,2.31,2.54ZM115.71,73.28c.64,0,1.18-.34,1.18-.96v-.32h-.47c-.97,0-1.46.24-1.46.73,0,.36.36.55.75.55Z"/>
          <path class="cls-1" d="M123.76,69.71l-1.03,1.08c-.19-.26-.45-.38-.77-.38-.76,0-1.25.52-1.25,1.28s.5,1.28,1.25,1.28c.3,0,.56-.13.77-.38l1.03,1.08c-.45.45-1.04.68-1.8.68-.8,0-1.47-.25-2-.74-.54-.49-.81-1.12-.81-1.91s.27-1.44.81-1.92c.53-.49,1.2-.73,2-.73s1.37.23,1.8.68Z"/>
          <path class="cls-1" d="M126.39,67.66v1.5h1.37v1.25h-1.37v1.78c0,.61.21.84.74.84.32,0,.54-.05.64-.15v1.3c-.3.1-.67.16-1.09.16-1.2,0-1.84-.56-1.84-1.49v-2.44h-1v-1.25h1v-1.5h1.56Z"/>
          <path class="cls-1" d="M131.18,69.03c.8,0,1.47.24,2.01.73.53.49.8,1.13.8,1.92s-.27,1.42-.81,1.91c-.54.49-1.21.74-2,.74s-1.47-.24-2-.73c-.54-.49-.81-1.12-.81-1.92s.27-1.44.81-1.92c.53-.49,1.2-.73,2-.73ZM129.93,71.68c0,.38.12.69.34.93.22.24.52.35.9.35.76,0,1.25-.5,1.25-1.28s-.48-1.28-1.26-1.28c-.37,0-.68.11-.89.35-.23.24-.34.54-.34.93Z"/>
          <path class="cls-1" d="M138.47,69.08v1.42c-.26-.07-.48-.1-.67-.1-1.05,0-1.33.5-1.33,1.63v2.17h-1.56v-5.06h1.56v.81h.02c.34-.63.83-.94,1.47-.94.22,0,.39.02.51.05Z"/>
          <path class="cls-1" d="M138.62,69.16h1.69l1.3,3.34h.02l1.11-3.34h1.6l-2.27,5.82c-.16.37-.18.45-.3.74-.14.29-.21.34-.37.54-.17.2-.32.24-.57.33-.25.09-.54.12-.91.12-.41,0-.79-.06-1.17-.19l.21-1.28c.24.1.49.16.73.16s.42-.02.55-.12c.14-.09.21-.11.3-.3.09-.19.12-.21.21-.46.04-.14.07-.22.09-.27l-2.22-5.1Z"/>
        </g>
        <g>
          <path class="cls-1" d="M7.39,56.17c.27.25.62.37,1.05.37v1.73c-.72,0-1.33-.15-1.83-.44-.5-.3-.87-.72-1.1-1.27-.42.99-1.19,1.48-2.31,1.48-.45,0-.88-.12-1.27-.36s-.71-.57-.95-1c-.24-.43-.36-.92-.36-1.47,0-.68.17-1.27.5-1.79.33-.51.79-.91,1.37-1.19.58-.28,1.24-.42,1.97-.42.28,0,.53.02.76.05v-.54h1.76v3.72c0,.5.13.87.4,1.12ZM2.44,50.37c-.19-.19-.29-.43-.29-.7s.1-.51.29-.7c.19-.19.43-.29.7-.29s.51.1.7.29c.19.19.29.43.29.7s-.1.51-.29.7-.43.29-.7.29-.51-.1-.7-.29ZM4.8,55.8c.28-.36.43-.85.43-1.46v-.79c-.26-.04-.49-.06-.69-.06-.63,0-1.15.15-1.56.46-.41.31-.61.72-.61,1.24,0,.37.12.65.36.85.24.2.55.3.93.3.48,0,.86-.18,1.14-.54ZM4.77,50.37c-.19-.19-.29-.43-.29-.7s.1-.51.29-.7c.19-.19.43-.29.7-.29s.51.1.7.29c.19.19.29.43.29.7s-.1.51-.29.7-.43.29-.7.29-.5-.1-.7-.29Z"/>
          <path class="cls-1" d="M13.46,56.55v1.73c-1.24,0-2.08-.34-2.51-1.03-.28.33-.63.58-1.06.76-.43.18-.91.27-1.46.27-.26,0-.49-.09-.67-.26s-.27-.38-.27-.63.08-.45.26-.61.4-.23.68-.23c.43,0,.78-.12,1.05-.37.27-.25.41-.62.41-1.12v-2.38h1.77v2.38c0,.44.12.8.37,1.06.29.29.76.43,1.43.43ZM8.9,61.01c-.19-.19-.29-.43-.29-.7s.1-.51.29-.7.43-.29.7-.29.51.1.7.29.29.43.29.7-.1.51-.29.7-.43.29-.7.29-.51-.1-.7-.29ZM11.23,61.01c-.19-.19-.29-.43-.29-.7s.1-.51.29-.7c.19-.19.43-.29.7-.29s.51.1.7.29.29.43.29.7-.1.51-.29.7-.43.29-.7.29-.51-.1-.7-.29Z"/>
          <path class="cls-1" d="M18.48,56.55v1.73c-1.24,0-2.08-.34-2.51-1.03-.28.33-.63.58-1.06.76-.42.18-.91.27-1.45.27-.27,0-.49-.09-.67-.26-.18-.17-.27-.38-.27-.63s.09-.45.26-.61.4-.23.68-.23c.43,0,.78-.12,1.05-.37.27-.25.41-.62.41-1.12v-2.38h1.76v2.38c0,.44.13.8.37,1.06.29.29.76.43,1.42.43ZM15.14,61c-.19-.19-.29-.43-.29-.7s.1-.51.29-.7.43-.29.7-.29.51.1.7.29c.19.19.29.43.29.7s-.1.51-.29.7c-.19.19-.43.29-.7.29s-.51-.1-.7-.29Z"/>
          <path class="cls-1" d="M29.92,56.55v1.73c-1.2,0-2.02-.33-2.48-.98-.28.31-.64.55-1.07.72-.44.17-.92.26-1.45.26h-6.44c-.27,0-.5-.08-.67-.25-.18-.16-.26-.37-.26-.62s.09-.46.26-.62c.17-.16.4-.25.67-.25h.61v-6.85h1.75v3.89c.32-.57.78-1,1.35-1.29.57-.29,1.24-.43,2.02-.43.72,0,1.37.15,1.97.46s1.08.72,1.43,1.25.53,1.12.54,1.78c.05.32.16.57.35.76.29.29.76.43,1.42.43ZM26.38,55.4c0-.53-.19-.96-.58-1.28-.39-.32-.92-.48-1.59-.48-.58,0-1.12.12-1.63.35-.51.23-.93.57-1.25.99-.32.43-.49.92-.5,1.47v.09h4.09c.97,0,1.46-.38,1.46-1.14Z"/>
          <path class="cls-1" d="M31.38,49.7h1.77v8.58h-3.23c-.27,0-.5-.08-.67-.25-.18-.16-.26-.37-.26-.62s.09-.46.26-.62c.17-.16.4-.25.67-.25h1.46v-6.85Z"/>
          <path class="cls-1" d="M34.39,49.7h1.77v8.58h-1.77v-8.58Z"/>
          <path class="cls-1" d="M51.95,56.55v1.73c-.63,0-1.15-.09-1.56-.26-.41-.17-.72-.43-.94-.77-.29.34-.65.59-1.08.77-.43.17-.91.26-1.45.26h-3.11c-.73,0-1.4-.14-2.02-.42-.62-.28-1.11-.68-1.48-1.2-.37-.52-.56-1.13-.56-1.82,0-.48.11-1.01.32-1.58h1.65c-.15.49-.22.91-.22,1.27,0,.64.2,1.14.59,1.49.39.35.97.53,1.72.53h3.11c.51,0,.88-.12,1.11-.36.23-.24.35-.62.35-1.14v-2.38h1.77v2.38c0,.44.12.8.37,1.06.29.29.76.43,1.43.43ZM43.08,51.57c-.19-.19-.29-.43-.29-.7s.1-.51.29-.7.43-.29.7-.29.51.1.7.29.29.43.29.7-.1.51-.29.7c-.19.19-.43.29-.7.29s-.51-.1-.7-.29ZM44.24,49.58c-.19-.19-.29-.43-.29-.7s.1-.51.29-.7.43-.29.7-.29.51.1.7.29c.19.19.29.43.29.7s-.1.51-.29.7c-.19.19-.43.29-.7.29s-.51-.1-.7-.29ZM45.41,51.57c-.19-.19-.29-.43-.29-.7s.1-.51.29-.7.43-.29.7-.29.51.1.7.29.29.43.29.7-.1.51-.29.7c-.19.19-.43.29-.7.29s-.5-.1-.7-.29Z"/>
          <path class="cls-1" d="M56.97,56.55v1.73c-1.24,0-2.08-.34-2.51-1.03-.28.33-.63.58-1.06.76-.43.18-.91.27-1.46.27-.27,0-.5-.08-.67-.25-.18-.16-.26-.37-.26-.62s.09-.46.26-.62c.17-.16.4-.25.67-.25.43,0,.78-.12,1.05-.37.27-.25.41-.62.41-1.12v-5.35h1.77v5.35c0,.44.12.8.37,1.06.29.29.76.43,1.43.43Z"/>
          <path class="cls-1" d="M62,56.55v1.73c-1.24,0-2.08-.34-2.51-1.03-.28.33-.63.58-1.06.76-.42.18-.91.27-1.45.27-.27,0-.49-.09-.67-.26-.18-.17-.27-.38-.27-.63s.09-.45.26-.61.4-.23.68-.23c.43,0,.78-.12,1.05-.37.27-.25.41-.62.41-1.12v-2.38h1.76v2.38c0,.44.13.8.37,1.06.29.29.76.43,1.42.43ZM57.44,61.01c-.19-.19-.29-.43-.29-.7s.1-.51.29-.7.43-.29.7-.29.51.1.7.29.29.43.29.7-.1.51-.29.7-.43.29-.7.29-.5-.1-.7-.29ZM59.77,61.01c-.19-.19-.29-.43-.29-.7s.1-.51.29-.7.43-.29.7-.29.51.1.7.29.29.43.29.7-.1.51-.29.7-.43.29-.7.29-.51-.1-.7-.29Z"/>
          <path class="cls-1" d="M68.27,51c.77.38,1.37.91,1.8,1.61.43.69.64,1.5.64,2.42v3.25h-8.72c-.24,0-.45-.09-.63-.26-.17-.18-.26-.38-.26-.63s.08-.43.25-.58c.16-.16.37-.24.62-.26h.64c-.06-.25-.09-.49-.09-.71,0-.44.1-.85.3-1.23.2-.39.49-.7.88-.94.39-.24.85-.36,1.39-.36s1.01.12,1.4.35.68.54.88.92c.2.38.3.79.3,1.22v.76h1.29v-1.48c0-.6-.14-1.12-.43-1.55s-.69-.77-1.21-1-1.11-.34-1.78-.34c-.83,0-1.69.18-2.58.54l-.57-1.65c1.11-.41,2.19-.62,3.24-.62s1.89.19,2.66.57ZM64.48,56.32c.14.15.35.23.61.23h.83v-.72c0-.21-.08-.4-.23-.56s-.36-.24-.62-.24-.46.07-.6.22c-.14.15-.21.33-.21.54s.07.38.22.53Z"/>
          <path class="cls-1" d="M76.09,57.21c0,.75.23,1.31.69,1.68s1.17.56,2.12.56h1.16c.74,0,1.27-.05,1.58-.15s.47-.3.47-.6c0-.22-.06-.39-.19-.52-.13-.13-.28-.23-.47-.29-.19-.07-.47-.14-.84-.22-.54-.12-.96-.23-1.25-.34-.65-.25-1.1-.58-1.37-1-.27-.42-.4-.93-.4-1.54,0-.55.16-1.05.48-1.5.32-.44.77-.79,1.36-1.04.58-.25,1.25-.37,2-.37.84,0,1.72.16,2.65.49l-.48,1.68c-.86-.33-1.63-.49-2.34-.49-.58,0-1.05.11-1.39.33-.34.22-.51.52-.51.89,0,.21.05.38.15.52.1.14.29.27.58.4s.72.27,1.29.42c.74.19,1.34.48,1.81.85s.7.94.7,1.71c0,.83-.33,1.44-.99,1.85-.66.41-1.61.61-2.83.61h-1.16c-.86,0-1.63-.13-2.31-.39-.68-.26-1.23-.65-1.63-1.19-.4-.54-.61-1.2-.61-2,0-.53.1-1.11.29-1.74h1.65c-.13.53-.2.98-.2,1.37ZM77.22,63.63c-.19-.19-.29-.43-.29-.7s.1-.51.29-.7.43-.29.7-.29.51.1.7.29.29.43.29.7-.1.51-.29.7-.43.29-.7.29-.5-.1-.7-.29ZM79.55,63.63c-.19-.19-.29-.43-.29-.7s.1-.51.29-.7.43-.29.7-.29.51.1.7.29.29.43.29.7-.1.51-.29.7-.43.29-.7.29-.51-.1-.7-.29Z"/>
          <path class="cls-1" d="M92.41,56.55v1.73h-7.09v-1.73h4.15v-.67c0-.57-.09-1.01-.27-1.34s-.46-.56-.84-.7c-.38-.14-.89-.22-1.53-.22h-.85v-1.76h.88c1.36,0,2.43.34,3.21,1.03.78.69,1.17,1.68,1.17,2.99v.67h1.18Z"/>
          <path class="cls-1" d="M97.44,56.55v1.73c-1.24,0-2.08-.34-2.51-1.03-.28.33-.63.58-1.06.76-.43.18-.91.27-1.46.27-.26,0-.49-.09-.67-.26s-.27-.38-.27-.63.09-.45.26-.61.4-.23.68-.23c.43,0,.78-.12,1.05-.37.27-.25.41-.62.41-1.12v-2.38h1.77v2.38c0,.44.12.8.37,1.06.29.29.76.43,1.43.43ZM92.88,61.01c-.19-.19-.29-.43-.29-.7s.1-.51.29-.7.43-.29.7-.29.51.1.7.29c.19.19.29.43.29.7s-.1.51-.29.7c-.19.19-.43.29-.7.29s-.51-.1-.7-.29ZM95.21,61.01c-.19-.19-.29-.43-.29-.7s.1-.51.29-.7.43-.29.7-.29.51.1.7.29.29.43.29.7-.1.51-.29.7-.43.29-.7.29-.51-.1-.7-.29Z"/>
          <path class="cls-1" d="M108.37,51.86v6.41h-2.41c-.52,0-.96-.08-1.3-.24-.34-.16-.61-.4-.81-.72-.23.3-.51.54-.83.71-.32.17-.67.25-1.04.25h-4.56c-.27,0-.5-.08-.67-.25-.17-.16-.26-.37-.26-.62s.09-.46.26-.62c.18-.16.4-.25.67-.25h1.46v-4.3h1.77v4.3h1.1c.66,0,.99-.5.99-1.5v-2.8h1.77v2.8c0,.51.1.89.3,1.13.2.24.5.36.92.36h.88v-4.69h1.76ZM101.13,50.75c-.19-.19-.29-.43-.29-.7s.1-.51.29-.7.43-.29.7-.29.51.1.7.29.29.43.29.7-.1.51-.29.7-.43.29-.7.29-.51-.1-.7-.29ZM102.87,48.82c-.19-.19-.29-.43-.29-.7s.1-.51.29-.7.43-.29.7-.29.51.1.7.29.29.43.29.7-.1.51-.29.7-.43.29-.7.29-.51-.1-.7-.29ZM104.62,50.75c-.19-.19-.29-.43-.29-.7s.1-.51.29-.7c.19-.19.43-.29.7-.29s.51.1.7.29.29.43.29.7-.1.51-.29.7-.43.29-.7.29-.51-.1-.7-.29Z"/>
          <path class="cls-1" d="M120.7,56.55v1.73h-3.01c-.48,0-.87-.28-1.19-.84-.31.56-.71.84-1.19.84-.54,0-.94.1-1.2.3-.26.2-.39.48-.39.84,0,.77.59,1.16,1.78,1.16h1.65v1.72h-1.65c-1.13,0-2-.25-2.62-.75-.61-.5-.92-1.21-.92-2.13,0-.75.2-1.36.62-1.83.41-.47,1-.79,1.78-.94l-1.34-1.35v-.02c0-.63.15-1.21.46-1.73.31-.52.73-.93,1.26-1.23.53-.3,1.12-.45,1.77-.45s1.25.15,1.78.45.95.71,1.26,1.23.46,1.1.46,1.73v.02l-1.25,1.25h1.95ZM118.24,54.78c-.02-.17-.11-.35-.27-.53-.16-.18-.36-.33-.63-.45s-.54-.18-.85-.18-.59.06-.85.18-.47.27-.63.45c-.16.18-.24.35-.27.53l1.74,1.79,1.74-1.79Z"/>
          <path class="cls-1" d="M125.73,56.55v1.73c-1.24,0-2.08-.34-2.51-1.03-.28.33-.63.58-1.06.76-.43.18-.91.27-1.46.27-.26,0-.49-.09-.67-.26s-.27-.38-.27-.63.09-.45.26-.61.4-.23.68-.23c.43,0,.78-.12,1.05-.37.27-.25.41-.62.41-1.12v-2.38h1.77v2.38c0,.44.12.8.37,1.06.29.29.76.43,1.43.43ZM122.31,51.32c-.19-.19-.29-.43-.29-.7s.1-.51.29-.7c.19-.19.43-.29.7-.29s.5.1.7.29c.19.19.29.43.29.7s-.1.51-.29.7-.43.29-.7.29-.51-.1-.7-.29Z"/>
          <path class="cls-1" d="M137.16,56.55v1.73c-1.2,0-2.02-.33-2.48-.98-.28.31-.64.55-1.08.72-.44.17-.92.26-1.45.26h-6.44c-.27,0-.5-.08-.67-.25-.17-.16-.26-.37-.26-.62s.09-.46.26-.62c.18-.16.4-.25.67-.25h.61v-4.69h1.75v1.72c.33-.56.78-.99,1.34-1.27.57-.29,1.24-.43,2.02-.43.72,0,1.38.15,1.98.46s1.08.72,1.42,1.25c.35.53.53,1.12.54,1.78.05.32.16.57.35.76.29.29.76.43,1.42.43ZM133.62,55.4c0-.53-.19-.96-.58-1.28-.39-.32-.92-.48-1.59-.48-.58,0-1.12.12-1.62.35s-.92.56-1.24.99c-.32.42-.49.91-.52,1.47v.11h4.09c.97,0,1.46-.38,1.46-1.14Z"/>
          <path class="cls-1" d="M143.04,52.3c.48.3.86.7,1.13,1.21.28.51.42,1.07.42,1.69s-.14,1.19-.41,1.65-.64.82-1.09,1.06c-.45.24-.95.36-1.48.36-.42,0-.84-.07-1.25-.22-.41-.15-.79-.37-1.14-.67-.23.29-.53.51-.88.66-.35.15-.75.23-1.17.23-.26,0-.49-.09-.67-.26s-.27-.38-.27-.63.09-.45.26-.61.4-.23.68-.23c.25,0,.44-.04.57-.13s.23-.21.29-.37c.06-.15.13-.4.2-.72.08-.33.13-.55.16-.65.24-.89.62-1.58,1.14-2.07.52-.49,1.15-.74,1.89-.74.6,0,1.14.15,1.62.44ZM142.4,56.28c.28-.25.42-.61.42-1.08s-.13-.83-.39-1.13c-.26-.3-.59-.45-1.02-.45-.32,0-.58.11-.78.32-.2.21-.38.56-.53,1.02-.08.23-.14.46-.17.71-.02.05-.03.12-.04.19-.01.07-.03.16-.06.25.23.18.47.31.74.4s.52.13.77.13c.43,0,.78-.13,1.06-.38Z"/>
        </g>
      </g>
      <path id="CUSTOM" class="cls-1" d="M88.66,31.27v-7.07c0-.45-.24-.86-.63-1.08l-6.12-3.53c.09-.36.14-.74.14-1.12,0-2.09-1.41-3.86-3.33-4.41v-7.07c0-.45-.24-.86-.63-1.08L68.16.17c-.39-.22-.86-.22-1.25,0l-6.12,3.54c-.83-.8-1.95-1.3-3.19-1.3-2.53,0-4.58,2.06-4.58,4.58,0,2.09,1.41,3.86,3.33,4.41v7.07c0,.45.24.86.63,1.08l9.31,5.38v6.35c-1.92.55-3.33,2.32-3.33,4.41,0,2.53,2.06,4.58,4.58,4.58,1.24,0,2.37-.5,3.19-1.3l6.12,3.54c.19.11.41.17.63.17s.43-.06.63-.17l6.12-3.54c.83.8,1.95,1.3,3.19,1.3,2.53,0,4.58-2.06,4.58-4.58,0-2.09-1.41-3.86-3.33-4.41h0ZM79.56,18.47c0,1.15-.93,2.08-2.08,2.08s-2.08-.93-2.08-2.08.93-2.08,2.08-2.08,2.08.93,2.08,2.08ZM55.51,6.99c0-1.15.93-2.08,2.08-2.08s2.08.93,2.08,2.08-.93,2.08-2.08,2.08c-1.15,0-2.08-.93-2.08-2.08ZM58.84,17.74v-6.35c1.92-.55,3.33-2.32,3.33-4.41,0-.39-.05-.76-.14-1.12l5.5-3.17,8.69,5.02v6.35c-1.92.55-3.33,2.32-3.33,4.41,0,.39.05.76.14,1.12l-5.5,3.17-8.69-5.02ZM67.53,37.77c-1.15,0-2.08-.93-2.08-2.08s.93-2.08,2.08-2.08,2.08.93,2.08,2.08-.93,2.08-2.08,2.08ZM82.83,35.68c0,.39.05.76.14,1.12l-5.5,3.17-5.5-3.17c.09-.36.14-.74.14-1.12,0-2.09-1.41-3.86-3.33-4.41v-6.35l5.5-3.17c.83.8,1.95,1.3,3.19,1.3s2.37-.5,3.19-1.3l5.5,3.17v6.35c-1.92.55-3.33,2.32-3.33,4.41h0ZM87.41,37.77c-1.15,0-2.08-.93-2.08-2.08s.93-2.08,2.08-2.08,2.08.93,2.08,2.08-.93,2.08-2.08,2.08Z"/>
    </g>
  </g>
</svg>