<?xml version="1.0" encoding="UTF-8" standalone="no"?>
<svg
   id="Layer_1"
   enable-background="new 0 0 512 512"
   height="450.67737"
   viewBox="0 0 353.50397 450.67737"
   width="353.50397"
   version="1.1"
   xml:space="preserve"
   xmlns="http://www.w3.org/2000/svg"
   xmlns:svg="http://www.w3.org/2000/svg"><defs
     id="defs1" /><path
     clip-rule="evenodd"
     d="m 339.87598,298.49558 c 0,2.743 -2.242,4.973 -4.956,4.973 h -2.95 v -61.409 c 0,-6.478 -5.251,-11.746 -11.74,-11.746 h -10.087 c -12.094,0 -21.888,9.805 -21.888,21.87 v 51.285 h -104.658 v -46.601 c 23.073,11.395 50.736,-5.294 50.736,-31.527 0,-26.178 -27.58,-42.94 -50.736,-31.533 v -46.601 h 60.825 c 6.528,0 9.325,-8.248 4.189,-12.23 -5.31,-4.106 -8.378,-10.313 -8.378,-17.02 0,-11.846 9.675,-21.492003 21.475,-21.492003 11.858,0 21.534,9.646003 21.534,21.492003 0,6.708 -3.068,12.914 -8.378,17.02 -5.137,3.982 -2.339,12.23 4.189,12.23 h 60.825 v 151.289 z m -21.533,17.339 v -71.869 h -8.2 c -4.543,0 -8.26,3.687 -8.26,8.218 v 58.117 c 0,1.277 -0.404,2.886 -1.18,3.846 -1.069,1.323 -2.111,2.352 -3.953,2.767 -8.604,1.938 -15.162,4.981 -21.887,11.451 -1.298,1.263 -3.009,1.888 -4.72,1.888 -6.304,0 -9.079,-7.765 -4.719,-11.77 0.531,-0.466 1.003,-0.908 1.534,-1.357 h -66.135 l -2.419,5.027 c -2.36,4.725 -1.239,10.613 2.832,15.746 l 5.723,7.203 c 0,0 0.059,0 0.059,0.006 l 88.435,25.386 16.047,-28.613 c 4.719,-8.389 6.843,-16.418 6.843,-26.046 z m -23.008,70.948 -13.982,48.772 c -0.291,1.073 -1.452,1.688 -2.478,1.386 l -90.736,-26.047 c -1.075,-0.307 -1.711,-1.422 -1.416,-2.502 l 14.041,-48.772 c 0.305,-1.119 1.468,-1.683 2.478,-1.386 l 90.736,26.047 c 1.062,0.307 1.651,1.452 1.357,2.502 z m -203.535992,-134.05 c 26.399992,0 42.891992,27.853 31.562992,50.736 h 46.607 v -60.83 c 0,-6.491 8.257,-9.301 12.212,-4.171 4.13,5.315 10.324,8.366 16.991,8.366 11.858,0 21.534,-9.64 21.534,-21.492 0,-11.852 -9.675,-21.492 -21.534,-21.492 -6.666,0 -12.861,3.044 -16.991,8.366 -3.954,5.131 -12.212,2.314 -12.212,-4.177 v -60.831 H 65.309988 v 51.291 c 0,12.059 -9.793,21.87 -21.887,21.87 h -10.088 c -6.49,0 -11.799,-5.268 -11.799,-11.746 v -61.414 h -2.891 c -2.714,0 -4.956,2.23 -4.956,4.973 v 151.289 h 46.607 c -11.537,-23.304 5.491,-50.738 31.503,-50.738 z m -56.577,-117.886 c 0,-9.628 2.124,-17.663 6.784,-26.052 l 16.106,-28.613003 88.434992,25.386003 c 0,0.006 0.059,0.012 0.059,0.012 l 5.723,7.203 c 3.835,4.796 4.72,10.602 2.596,16.342 l -1.652,4.425 H 86.607988 c 0.531,-0.449 1.003,-0.885 1.534,-1.357 2.714,-2.602 2.832,-6.92 0.177,-9.652 -2.596,-2.726 -6.903,-2.832 -9.616,-0.23 -6.807,6.504 -13.202,9.495 -21.887,11.451 -1.231,0.277 -2.155,0.912 -3.068,1.687 l -1.062,1.274 c -0.549,0.744 -1.062,2.703 -1.062,3.658 v 58.117 c 0,4.531 -3.658,8.212 -8.2,8.212 h -8.2 v -71.863 z m 22.949,-70.954003 c -0.261,1.018 0.354,2.203 1.416,2.502 l 90.735992,26.047 c 1.037,0.296 2.179,-0.287 2.478,-1.381 l 14.041,-48.772002 c 0.295,-1.056 -0.354,-2.2 -1.416,-2.501 l -90.735992,-26.047 c -0.924,-0.287 -2.161,0.223 -2.478,1.386 z M 341.76398,133.54858 h -48.495 c 11.326,-22.879 -5.155,-50.737003 -31.563,-50.737003 -26.326,0 -42.835,27.847003 -31.504,50.737003 h -62.359 c 3.658,-10.153 1.888,-20.802 -4.838,-29.274 l -1.652,-2.112 c 2.183,-1.947 3.776,-4.460003 4.602,-7.339003 l 13.982,-48.766 c 2.419,-8.313002 -2.419,-17.015002 -10.737,-19.398002 L 78.464988,0.61257537 c -8.345,-2.40000007 -17.01,2.47399993 -19.41,10.74299963 l -13.982,48.772002 c -1.18,4.012 -0.649,8.248 1.357,11.917 0.118,0.171 0.236,0.33 0.295,0.501 l -16.578,29.557003 c -5.664,10.023 -8.377,20.053 -8.554,31.445 h -2.95 c -10.2650008,0 -18.643000821087,8.36 -18.643000821087,18.631 v 153.2 c 0,6.478 5.310000021087,11.746 11.799000821087,11.746 h 62.713 c 6.528,0 9.325,-8.248 4.189,-12.23 -5.31,-4.106 -8.377,-10.312 -8.377,-17.02 0,-11.846 9.616,-21.492 21.474,-21.492 11.857992,0 21.533992,9.646 21.533992,21.492 0,6.708 -3.068,12.914 -8.378,17.02 -5.136992,3.982 -2.339,12.23 4.189,12.23 h 76.517 c -4.071,9.374 -2.301,20.236 4.897,29.28 l 1.652,2.112 c -2.183,1.947 -3.776,4.46 -4.602,7.333 l -13.982,48.772 c -2.413,8.316 2.412,17.003 10.737,19.398 l 90.736,26.047 c 8.304,2.386 16.998,-2.431 19.41,-10.743 l 13.982,-48.772 c 1.239,-4.36 0.472,-8.82 -1.652,-12.424 l 16.578,-29.551 c 5.664,-10.024 8.377,-20.053 8.554,-31.451 h 2.95 c 10.265,0 18.584,-8.36 18.584,-18.631 v -153.2 c 0,-6.477 -5.25,-11.746 -11.74,-11.746 z"
     fill-rule="evenodd"
     id="path1-2"
     style="fill:#018e64;fill-opacity:1" /></svg>
