<svg id="Layer_1" enable-background="new 0 0 500 500" viewBox="0 0 500 500" xmlns="http://www.w3.org/2000/svg"><path clip-rule="evenodd" d="m413.123 323.156c0 2.743-2.242 4.973-4.956 4.973h-2.95v-61.409c0-6.478-5.251-11.746-11.74-11.746h-10.087c-12.094 0-21.888 9.805-21.888 21.87v51.285h-104.658v-46.601c23.073 11.395 50.736-5.294 50.736-31.527 0-26.178-27.58-42.94-50.736-31.533v-46.601h60.825c6.528 0 9.325-8.248 4.189-12.23-5.31-4.106-8.378-10.313-8.378-17.02 0-11.846 9.675-21.492 21.475-21.492 11.858 0 21.534 9.646 21.534 21.492 0 6.708-3.068 12.914-8.378 17.02-5.137 3.982-2.339 12.23 4.189 12.23h60.825v151.289zm-21.533 17.339v-71.869h-8.2c-4.543 0-8.26 3.687-8.26 8.218v58.117c0 1.277-.404 2.886-1.18 3.846-1.069 1.323-2.111 2.352-3.953 2.767-8.604 1.938-15.162 4.981-21.887 11.451-1.298 1.263-3.009 1.888-4.72 1.888-6.304 0-9.079-7.765-4.719-11.77.531-.466 1.003-.908 1.534-1.357h-66.135l-2.419 5.027c-2.36 4.725-1.239 10.613 2.832 15.746l5.723 7.203s.059 0 .059.006l88.435 25.386 16.047-28.613c4.719-8.389 6.843-16.418 6.843-26.046zm-23.008 70.948-13.982 48.772c-.291 1.073-1.452 1.688-2.478 1.386l-90.736-26.047c-1.075-.307-1.711-1.422-1.416-2.502l14.041-48.772c.305-1.119 1.468-1.683 2.478-1.386l90.736 26.047c1.062.307 1.651 1.452 1.357 2.502zm-203.536-134.05c26.4 0 42.892 27.853 31.563 50.736h46.607v-60.83c0-6.491 8.257-9.301 12.212-4.171 4.13 5.315 10.324 8.366 16.991 8.366 11.858 0 21.534-9.64 21.534-21.492s-9.675-21.492-21.534-21.492c-6.666 0-12.861 3.044-16.991 8.366-3.954 5.131-12.212 2.314-12.212-4.177v-60.831h-104.659v51.291c0 12.059-9.793 21.87-21.887 21.87h-10.088c-6.49 0-11.799-5.268-11.799-11.746v-61.414h-2.891c-2.714 0-4.956 2.23-4.956 4.973v151.289h46.607c-11.537-23.304 5.491-50.738 31.503-50.738zm-56.577-117.886c0-9.628 2.124-17.663 6.784-26.052l16.106-28.613 88.435 25.386c0 .006.059.012.059.012l5.723 7.203c3.835 4.796 4.72 10.602 2.596 16.342l-1.652 4.425h-66.665c.531-.449 1.003-.885 1.534-1.357 2.714-2.602 2.832-6.92.177-9.652-2.596-2.726-6.903-2.832-9.616-.23-6.807 6.504-13.202 9.495-21.887 11.451-1.231.277-2.155.912-3.068 1.687l-1.062 1.274c-.549.744-1.062 2.703-1.062 3.658v58.117c0 4.531-3.658 8.212-8.2 8.212h-8.2v-71.863zm22.949-70.954c-.261 1.018.354 2.203 1.416 2.502l90.736 26.047c1.037.296 2.179-.287 2.478-1.381l14.041-48.772c.295-1.056-.354-2.2-1.416-2.501l-90.736-26.047c-.924-.287-2.161.223-2.478 1.386zm283.593 69.656h-48.495c11.326-22.879-5.155-50.737-31.563-50.737-26.326 0-42.835 27.847-31.504 50.737h-62.359c3.658-10.153 1.888-20.802-4.838-29.274l-1.652-2.112c2.183-1.947 3.776-4.46 4.602-7.339l13.982-48.766c2.419-8.313-2.419-17.015-10.737-19.398l-90.735-26.047c-8.345-2.4-17.01 2.474-19.41 10.743l-13.982 48.772c-1.18 4.012-.649 8.248 1.357 11.917.118.171.236.33.295.501l-16.578 29.557c-5.664 10.023-8.377 20.053-8.554 31.445h-2.95c-10.265 0-18.643 8.36-18.643 18.631v153.2c0 6.478 5.31 11.746 11.799 11.746h62.713c6.528 0 9.325-8.248 4.189-12.23-5.31-4.106-8.377-10.312-8.377-17.02 0-11.846 9.616-21.492 21.474-21.492s21.534 9.646 21.534 21.492c0 6.708-3.068 12.914-8.378 17.02-5.137 3.982-2.339 12.23 4.189 12.23h76.517c-4.071 9.374-2.301 20.236 4.897 29.28l1.652 2.112c-2.183 1.947-3.776 4.46-4.602 7.333l-13.982 48.772c-2.413 8.316 2.412 17.003 10.737 19.398l90.736 26.047c8.304 2.386 16.998-2.431 19.41-10.743l13.982-48.772c1.239-4.36.472-8.82-1.652-12.424l16.578-29.551c5.664-10.024 8.377-20.053 8.554-31.451h2.95c10.265 0 18.584-8.36 18.584-18.631v-153.2c0-6.477-5.25-11.746-11.74-11.746z" fill-rule="evenodd"/></svg>